<svg width="512" height="512" viewBox="0 0 512 512" fill="none" xmlns="http://www.w3.org/2000/svg">
<path d="M231.466 183.955C216.521 176.462 199.702 172.309 181.866 172.309C174.291 172.309 166.921 173.082 159.753 174.508C108.524 184.729 70 229.972 70 284.174C70 345.91 120.089 395.999 181.866 395.999C204.019 395.999 224.625 389.565 242.013 378.407C260.746 366.475 275.691 349.046 284.569 328.399C290.433 314.839 293.69 299.853 293.69 284.215C293.69 240.234 268.361 202.199 231.466 183.996V183.955ZM182.029 387.855C159.55 387.895 144.441 368.796 136.012 342.612C130.473 325.304 127.867 304.902 127.989 284.948C128.315 238.931 144.523 180.657 181.784 180.453C199.743 180.412 212.856 193.851 221.652 212.95C231.181 233.637 235.661 260.922 235.823 284.907V287.106C235.701 324.612 225.887 363.136 205.077 379.547C198.48 384.76 190.825 387.773 181.988 387.855H182.029Z" fill="#114635"/>
<path d="M398.753 156.964C379.899 142.629 355.221 133.467 331.52 132.937C317.145 132.612 302.566 135.218 289.29 140.797C285.91 142.222 282.612 143.81 279.476 145.643C276.707 147.272 273.408 149.023 271.291 151.466C269.58 153.462 269.336 156.475 271.82 157.982C273.408 158.959 275.2 158.674 276.87 159.326C283.67 161.484 289.86 165.027 295.847 168.855C301.385 172.438 306.964 176.063 312.217 180.013C322.194 187.587 331.887 196.913 338.361 207.745C344.877 218.577 350.537 230.346 352.695 242.889C354.732 254.78 353.062 266.997 350.496 278.644C347.198 293.711 339.786 306.743 332.375 320.1C331.438 321.769 332.253 324.131 334.208 324.579C339.95 325.923 345.773 323.52 350.945 321.158C356.402 318.634 361.655 315.824 367.152 313.38C373.505 310.57 379.899 307.801 385.885 304.218C391.464 300.838 396.595 296.643 401.156 292.001C419.4 273.472 426.811 248.387 428.318 222.935C429.092 209.863 427.3 196.872 421.802 184.94C416.59 173.66 408.608 164.375 398.794 156.923L398.753 156.964ZM401.563 282.553C397.531 287.399 392.93 291.919 387.84 295.666C382.016 299.983 375.419 303.118 368.862 306.05C363.161 308.616 357.46 311.141 351.881 313.991C348.542 315.661 344.266 318.145 340.153 318.796C346.139 308.005 352.004 297.173 355.221 285.159C358.601 272.698 360.718 259.137 359.293 246.228C357.827 232.953 352.615 220.695 346.18 209.13C339.502 197.076 330.217 186.854 319.588 178.14C313.765 173.375 307.412 169.221 301.141 165.068C294.055 160.344 286.684 156.068 278.539 153.462C279.639 152.729 280.739 151.996 281.879 151.344C286.847 148.371 292.141 146.009 297.598 144.177C308.634 140.471 320.28 138.801 331.886 139.086C353.51 139.657 375.704 147.923 393.255 160.466C402.133 166.819 409.463 174.678 414.594 184.289C420.214 194.755 422.536 206.361 422.373 218.17C422.047 240.975 416.345 264.716 401.563 282.553Z" fill="#114635"/>
<path d="M382.911 166.565C371.427 156.547 357.743 150.357 342.676 148.443C335.427 147.507 328.056 146.936 320.767 146.977C315.636 146.977 307.777 146.651 303.786 150.642C303.012 151.416 302.849 152.312 302.971 153.126C302.971 154.307 303.623 155.407 305.13 155.773C324.106 159.886 337.464 174.709 347.074 190.713C358.069 209.08 366.132 229.563 368.86 250.861C370.571 264.34 370.286 277.983 368.86 291.503C368.698 293.05 370.408 294.72 371.915 294.557C378.797 293.905 384.05 288.937 388.122 283.725C392.805 277.779 396.512 271.1 399.729 264.259C407.71 247.278 412.027 228.586 408.403 209.853C405.186 193.157 395.698 177.682 382.951 166.565H382.911ZM396.511 256.44C393.742 263.037 390.485 269.472 386.534 275.458C383.928 279.408 380.059 285.068 375.254 287.39C377.331 263.485 375.173 239.499 366.54 216.939C359.495 198.532 349.802 179.555 335.427 165.75C329.97 160.497 323.74 156.181 316.858 153.208C317.794 153.208 318.69 153.126 319.627 153.126C325.816 153.045 332.007 153.452 338.115 154.063C351.106 155.366 362.997 159.275 373.707 167.013C386.25 176.094 396.064 189.451 400.665 204.233C406.041 221.541 403.434 239.988 396.511 256.481V256.44Z" fill="#114635"/>
<path d="M373.792 173.779C368.172 168.608 360.394 164.25 352.941 168.363C352.453 168.648 352.086 169.015 351.842 169.381C351.149 170.196 350.986 171.336 351.842 172.517C361.33 185.63 369.638 200.453 373.466 216.294C376.683 229.611 375.99 244.23 382.384 256.61C383.076 257.954 385.275 258.646 386.578 257.709C400.546 247.325 397.899 225.579 394.682 210.715C391.669 196.788 384.38 183.431 373.792 173.739V173.779ZM386.089 249.85C384.175 244.719 383.28 239.099 382.465 233.724C381.447 226.841 380.714 219.878 378.922 213.118C375.094 198.702 367.928 185.06 359.417 172.761C363.122 172.843 366.828 175.693 369.434 178.055C374.565 182.738 378.678 188.562 382.139 194.548C388.533 205.584 391.099 219.104 390.936 231.769C390.855 237.755 389.958 244.922 386.048 249.809L386.089 249.85Z" fill="#114635"/>
<path d="M431.454 175.729C420.947 155.163 401.4 139.322 381.283 128.694C359.537 117.21 335.144 114.074 311.24 119.775C287.498 125.436 266.404 138.508 247.631 153.697C243.599 156.955 239.486 159.969 237.491 164.937C236.88 166.444 237.572 167.584 238.671 168.154C238.753 168.235 238.794 168.317 238.875 168.358C241.726 170.312 246.205 170.109 249.463 170.272C253.291 170.475 257.363 170.272 261.15 171.127C272.797 173.733 282.815 181.878 291.449 189.615C300.815 198.004 309.285 207.574 315.882 218.365C322.276 228.872 326.47 240.478 328.832 252.491C331.275 264.912 332.253 277.699 328.995 290.078C325.859 302.01 319.914 312.924 313.724 323.553C312.095 326.362 310.385 329.172 308.796 332.023C307.656 334.018 306.19 336.177 305.538 338.416C304.195 342.977 308.145 344.851 311.972 345.421C324.026 347.213 335.958 343.14 347.401 339.76C353.184 338.05 359.007 336.747 364.668 334.711C370.125 332.715 375.46 330.272 380.509 327.421C390.609 321.72 399.527 314.471 408.364 307.06C416.672 300.137 424.857 292.929 430.476 283.563C436.626 273.341 439.436 261.45 440.983 249.722C444.282 224.759 443.06 198.493 431.413 175.688L431.454 175.729ZM311.321 339.027C310.955 338.946 310.629 338.864 310.629 338.864C311.117 338.294 311.281 338.579 311.321 339.027ZM436.055 237.383C435.363 249.274 433.653 261.409 429.214 272.527C425.264 282.382 418.463 290.241 410.603 297.205C394.07 311.824 376.355 325.711 354.65 331.453C343.533 334.385 332.293 338.905 320.728 339.638C318.122 339.801 315.475 339.801 312.869 339.394C312.787 339.394 312.339 339.272 311.851 339.149C314.538 334.14 317.511 329.254 320.362 324.326C326.266 314.023 331.886 303.273 334.899 291.707C337.954 280.02 337.506 268.332 335.673 256.482C333.922 244.876 330.583 233.514 325.37 222.967C320.117 212.257 312.746 202.565 304.602 193.891C296.742 185.543 287.743 177.398 277.847 171.534C273.164 168.765 267.748 166.159 262.372 165.1C258.544 164.326 254.594 164.367 250.726 164.163C249.178 164.082 246.979 164.122 245.065 163.878C245.961 162.86 247.02 161.923 248.038 161.068C250.196 159.236 252.436 157.485 254.676 155.693C259.277 152.028 264.001 148.607 268.888 145.39C278.539 139.037 288.802 133.499 299.675 129.549C321.461 121.567 344.958 120.427 366.826 128.694C377.455 132.684 387.432 138.671 396.513 145.431C405.472 152.109 413.821 160.009 420.337 169.131C427.259 178.864 431.739 190.144 434.182 201.791C436.666 213.438 436.706 225.41 436.014 237.261L436.055 237.383Z" fill="#114635"/>
</svg>
