<svg width="778" height="485" viewBox="0 0 778 485" fill="none" xmlns="http://www.w3.org/2000/svg">
<path d="M0 0C618.4 0 777 323.333 779 485V0H0Z" fill="#F3F6E7"/>
<mask id="mask0_213_866" style="mask-type:alpha" maskUnits="userSpaceOnUse" x="0" y="0" width="779" height="485">
<path d="M0 0C618.4 0 777 323.333 779 485V0H0Z" fill="#F3F6E7"/>
</mask>
<g mask="url(#mask0_213_866)">
<path d="M788.85 248.775C771.024 232.541 739.276 218.006 714.715 226.98C707.71 229.54 701.56 233.29 695.263 237.214C686.281 242.811 677.247 248.953 667.609 253.306C656.459 258.342 648.052 264.033 635.268 264.243C629.508 264.337 622.867 265.006 617.3 263.305C609.991 261.072 603.624 254.688 597.614 250.181" stroke="#D9E0C0" stroke-width="2" stroke-linecap="round"/>
<path d="M788.85 208.541C771.024 192.306 739.276 177.771 714.715 186.746C707.71 189.305 701.56 193.055 695.263 196.979C686.281 202.577 677.247 208.719 667.609 213.072C656.459 218.108 648.052 223.799 635.268 224.008C629.508 224.103 622.867 224.772 617.3 223.071C609.991 220.838 603.624 214.454 597.614 209.947" stroke="#D9E0C0" stroke-width="2" stroke-linecap="round"/>
<path d="M789 168.408C768.213 152.261 731.191 137.805 702.551 146.731C694.382 149.277 687.211 153.006 679.868 156.909C669.394 162.477 658.86 168.586 647.621 172.915C634.618 177.924 624.815 183.584 609.908 183.793C603.192 183.887 595.448 184.552 588.956 182.86C580.432 180.639 573.007 174.29 566 169.807" stroke="#D9E0C0" stroke-width="2" stroke-linecap="round"/>
</g>
</svg>
