<svg width="135" height="357" viewBox="0 0 135 357" fill="none" xmlns="http://www.w3.org/2000/svg">
<path d="M151.468 2.10564C151.108 4.13767 149.824 5.32304 148.714 6.97406C147.474 8.82264 146.984 10.9958 146.335 13.0702C144.907 17.6281 141.533 21.5652 138.029 24.7825C131.05 31.1891 121.706 35.3096 112.708 38.2024C107.993 39.7123 103.148 40.8694 98.2448 41.6456C93.2123 42.4358 88.2086 42.4499 83.1473 42.8591C77.8408 43.2966 72.592 44.242 67.2711 44.4396C61.806 44.6371 56.312 44.4819 50.8469 44.4819C36.1676 44.4819 18.4168 43.7764 7.7029 55.5875C2.12244 61.7401 0.536265 69.7271 0.204609 77.7282C0.0027318 82.526 0.2767 87.3239 0.94001 92.0794C1.64658 97.23 2.87226 102.282 3.50673 107.447C4.1412 112.597 4.63147 117.776 5.5976 122.884C6.57814 128.063 8.27969 133.03 10.2696 137.927C12.1875 142.612 14.3072 147.212 16.2106 151.911C18.2149 156.85 19.6569 161.846 20.8105 167.025C21.9208 171.949 23.233 176.522 25.4104 181.108C27.7032 185.948 29.5922 190.957 31.5677 195.925C35.5908 206.056 39.5851 216.202 43.5649 226.348C51.1497 245.681 58.4029 265.183 68.4679 283.457C71.0346 288.128 73.212 292.968 75.2596 297.879C77.1919 302.479 79.2251 307.051 81.0708 311.694C82.8445 316.153 84.0125 320.866 86.435 325.057C87.6751 327.202 89.2324 329.178 90.66 331.21C92.2606 333.496 93.8468 335.768 95.5483 337.969C100.826 344.813 108.036 349.949 116.125 353.181C122.052 355.552 128.123 356.342 134.467 356.525C139.86 356.681 145.282 356.638 150.646 356.074C155.16 355.594 161.057 355.016 164.504 351.742C165.787 350.528 166.523 348.863 166.306 347.099C166.061 345.095 162.817 345.067 163.062 347.099C163.494 350.669 157.597 351.756 154.756 352.292C149.406 353.308 143.855 353.435 138.418 353.407C133.602 353.379 128.656 353.35 123.955 352.292C115.462 350.373 107.387 345.928 101.345 339.775C97.942 336.304 95.2887 332.169 92.5201 328.218C91.1791 326.299 89.7515 324.436 88.6701 322.362C87.5165 320.146 86.709 317.804 85.9015 315.461C84.2576 310.734 82.2244 306.19 80.3066 301.576C78.3743 296.905 76.4565 292.22 74.2791 287.648C72.1017 283.104 69.535 278.744 67.2567 274.256C64.9928 269.783 62.873 265.239 60.8543 260.653C56.7735 251.368 53.1397 241.913 49.4482 232.473C45.5837 222.581 41.6904 212.703 37.797 202.825C35.8359 197.886 33.8748 192.947 31.9137 188.008C30.1689 183.62 27.8906 179.4 26.2756 174.969C24.5164 170.157 23.8387 165.007 22.512 160.082C21.1854 155.171 19.1666 150.472 17.1479 145.815C15.1147 141.088 12.995 136.389 11.2934 131.535C9.5919 126.68 8.55367 121.699 7.86152 116.619C7.19821 111.68 6.7512 106.727 5.97253 101.816C5.19386 96.9478 4.05469 92.1923 3.65094 87.2675C2.97321 78.9136 2.88669 69.2191 7.21263 61.6978C14.8551 48.4049 32.0868 47.657 45.8289 47.6711C51.3228 47.6711 56.8312 47.6711 62.3251 47.6711C67.5739 47.6711 72.6785 47.2478 77.8841 46.6128C82.8012 46.0201 87.7184 45.9636 92.6499 45.5262C97.2787 45.1169 101.879 44.355 106.406 43.2825C115.505 41.1094 124.388 37.6662 132.391 32.9107C139.846 28.4797 147.128 21.7628 149.651 13.3665C150.257 11.3627 150.819 9.50002 152.117 7.80666C153.3 6.26853 154.28 4.89973 154.626 2.95237C154.972 0.948564 151.858 0.101833 151.497 2.10564L151.468 2.10564Z" fill="#D9E0C0" fill-opacity="0.2"/>
<path d="M136.731 47.5161C130.574 50.2537 124.1 52.2152 117.539 53.7815C113.761 54.6846 109.939 55.4748 106.133 56.2933C102.138 57.1541 98.1584 58.2124 94.1064 58.791C86.3197 59.8776 78.4033 59.6659 70.6022 60.6537C64.3872 61.4439 57.8406 62.8409 52.563 66.3546C47.5882 69.6708 43.666 74.5674 41.2579 79.9439C35.2304 93.3919 36.9175 108.308 37.2203 122.574C37.3789 129.94 37.5952 137.193 38.8498 144.475C40.0899 151.658 42.1375 158.629 44.8772 165.402C50.6163 179.654 56.6149 193.695 60.3208 208.611C64.1277 223.907 70.0542 238.597 74.9713 253.555C77.4083 260.936 80.0471 268.259 82.4696 275.64C84.5173 281.919 85.7285 288.438 88.0213 294.633C90.314 300.814 94.1353 306.317 98.1295 311.567C102.268 316.986 107.012 322.277 112.823 326.017C123.335 332.804 136.328 332.677 146.811 325.904C149.507 324.168 151.944 322.094 154.179 319.822C155.621 318.355 153.329 316.097 151.887 317.578C143.307 326.313 130.935 330.956 119.082 325.777C112.91 323.082 107.964 318.354 103.667 313.345C101.432 310.734 99.3985 307.954 97.4518 305.118C95.6061 302.409 93.7315 299.699 92.3616 296.722C89.6795 290.936 88.425 284.586 86.7091 278.49C84.7624 271.561 82.0947 264.802 79.8308 257.958C77.3795 250.507 74.9569 243.057 72.2893 235.676C69.7514 228.663 67.3144 221.607 65.2524 214.453C63.2048 207.355 61.6186 200.186 59.2249 193.187C56.8024 186.089 53.9617 179.132 51.121 172.189C48.3957 165.543 45.5982 158.953 43.7957 152.01C41.9933 145.096 40.9262 137.998 40.609 130.872C40.2773 123.435 40.1764 115.942 40.061 108.491C39.9457 101.576 40.0754 94.6055 41.8635 87.8744C43.4785 81.8065 46.2615 76.2749 50.847 71.8298C55.1874 67.6388 60.7534 65.635 66.6367 64.4778C74.1783 62.982 81.9073 63.0949 89.5354 62.4599C97.0625 61.8249 104.344 59.934 111.713 58.3536C124.273 55.6583 137.481 52.2857 148.137 44.9054C150.358 43.3673 152.435 41.6599 154.194 39.6278C155.535 38.0756 153.256 35.8177 151.901 37.3841C147.907 41.9985 142.297 45.0466 136.746 47.5161L136.731 47.5161Z" fill="#D9E0C0" fill-opacity="0.2"/>
<path d="M139.442 67.7378C133.314 71.1245 126.81 71.9288 119.99 73.0295C113.068 74.1443 106.104 75.3156 99.2253 76.6844C92.5057 78.025 85.8726 79.8312 79.6721 82.7381C61.4022 91.2755 57.4656 114.559 58.3308 132.354C58.9508 145.181 61.7194 158.107 65.3676 170.398C67.3576 177.115 69.9387 183.62 72.217 190.238C74.5386 196.997 76.6583 203.827 79.3981 210.431C80.7536 213.691 82.4839 216.81 83.7096 220.098C84.9353 223.372 85.6995 226.772 86.4926 230.173C88.05 236.862 90.4581 243.099 93.3565 249.336C98.9513 261.401 105.282 273.325 112.189 284.727C115.145 289.61 118.591 294.422 123.436 297.682C128.05 300.8 133.833 302.621 139.37 303.242C143.494 303.707 147.921 303.1 151.959 302.24C155.463 301.492 159.702 300.165 161.649 296.962C162.615 295.367 162.73 293.575 162.37 291.797C161.966 289.793 158.837 290.64 159.241 292.644C159.976 296.299 155.895 297.922 152.968 298.74C149.478 299.714 145.599 300.278 141.966 300.25C136.5 300.208 130.704 298.387 126.061 295.593C121.273 292.7 117.957 288.015 115.13 283.373C108.483 272.465 102.499 261.049 97.0047 249.534C94.1207 243.494 91.554 237.37 89.9822 230.865C89.218 227.69 88.5547 224.472 87.5597 221.354C86.5936 218.291 85.1516 215.483 83.825 212.576C80.9554 206.269 78.8213 199.679 76.6151 193.131C74.4954 186.795 72.0296 180.586 69.9531 174.236C65.8867 161.747 62.9307 148.709 61.7915 135.627C61.0129 126.667 61.5031 117.466 63.8536 108.745C66.1463 100.264 70.5155 91.7694 78.3743 87.0139C83.7673 83.7542 90.1697 81.962 96.2981 80.5509C102.729 79.0833 109.262 78.1378 115.765 76.9948C122.095 75.88 128.786 75.4003 134.885 73.3259C140.798 71.308 146.248 67.6108 151.238 63.9842C153.588 62.2767 155.881 60.4705 158.073 58.5654C159.63 57.2107 157.337 54.9671 155.78 56.3218C150.791 60.6681 145.282 64.5204 139.471 67.7378L139.442 67.7378Z" fill="#D9E0C0" fill-opacity="0.2"/>
<path d="M129.017 96.129C119.053 98.4714 108.512 98.288 98.9949 102.38C90.8189 105.894 83.8542 112.639 81.0856 121.035C79.6292 125.452 79.9031 129.954 79.7734 134.526C79.6147 139.86 79.2398 145.222 79.5715 150.556C80.2636 161.535 85.7864 171.399 88.8578 181.841C90.5161 187.443 91.4967 193.201 92.8377 198.888C94.0778 204.151 95.7793 209.217 97.9567 214.17C102.254 223.921 107.978 232.995 112.261 242.76C116.183 251.706 120.235 260.639 126.609 268.231C129.651 271.843 133.17 275.244 137.496 277.346C141.822 279.449 146.696 280.578 151.526 280.705C157.352 280.86 165.672 278.941 169.003 273.79C169.825 272.506 170.214 271.025 170.128 269.515C170.012 267.483 166.768 267.469 166.883 269.515C167.215 275.441 157.121 277.417 152.637 277.544C148.239 277.657 143.624 276.683 139.63 274.863C135.391 272.93 132.031 269.712 129.075 266.227C123.076 259.171 119.154 250.648 115.52 242.266C111.54 233.079 106.32 224.485 102.052 215.44C99.8457 210.769 98.0144 205.986 96.6878 201.004C95.3179 195.797 94.3806 190.477 93.1117 185.242C91.8283 180.007 90.0258 174.927 88.1513 169.861C86.3776 165.063 84.2002 160.321 83.3206 155.27C82.4699 150.359 82.6141 145.321 82.7871 140.368C82.8736 137.913 82.989 135.471 83.0467 133.016C83.0899 130.702 82.9313 128.373 83.2341 126.073C84.33 117.663 90.2421 110.678 97.6251 106.6C107.344 101.223 118.981 101.731 129.565 99.2758C140.437 96.764 150.632 91.7404 159.63 85.3339C161.303 84.1485 159.688 81.3827 157.986 82.5963C149.277 88.8052 139.5 93.6736 128.988 96.1431L129.017 96.129Z" fill="#D9E0C0" fill-opacity="0.2"/>
<path d="M132.968 116.987C125.931 118.991 118.216 119.527 111.569 122.674C105.844 125.383 101.85 131.098 98.7496 136.319C97.1202 139.057 95.5052 141.908 94.4958 144.927C93.2845 148.554 93.0105 152.449 93.4431 156.23C94.3083 164.048 97.4951 171.4 99.7157 178.893C101.908 186.33 103.739 193.894 106.608 201.119C109.622 208.696 113.429 216.034 117.106 223.33C118.75 226.59 120.192 230.019 122.874 232.615C125.268 234.929 127.993 236.806 130.242 239.29C135.102 244.666 141.173 249.718 148.931 249.831C155.91 249.93 161.216 244.864 165.787 240.334C167.258 238.88 164.965 236.637 163.495 238.09C159.803 241.745 155.434 246.317 149.825 246.642C143.22 247.009 137.597 242.634 133.458 238.09C131.353 235.776 129.118 233.8 126.724 231.783C124.013 229.511 122.542 226.942 120.971 223.852C117.481 216.994 114.078 210.093 110.92 203.08C107.863 196.335 105.988 189.124 103.984 182.04C101.994 175.027 99.312 168.183 97.596 161.099C96.7453 157.571 96.255 153.959 96.6299 150.332C96.9904 146.804 98.3891 143.643 100.076 140.553C102.83 135.473 106.205 129.913 111.165 126.597C114.193 124.579 117.87 123.704 121.403 122.942C125.152 122.123 128.916 121.418 132.636 120.402C136.414 119.358 140.408 118.328 143.941 116.62C147.128 115.082 149.868 112.514 153.487 111.992C155.549 111.695 154.67 108.633 152.622 108.929C149.176 109.423 146.436 111.61 143.494 113.247C140.293 115.04 136.515 115.985 132.997 116.987L132.968 116.987Z" fill="#D9E0C0" fill-opacity="0.2"/>
</svg>
