<svg width="15" height="18" viewBox="0 0 15 18" fill="none" xmlns="http://www.w3.org/2000/svg">
<path d="M7.75 16.5C5.038 16.5 3.00025 14.7773 2.1655 12H9.25V10.5H1.849C1.7832 10.0027 1.75013 9.50163 1.75 9C1.75 8.7525 1.7575 8.502 1.7695 8.25H9.25V6.75H1.92775C2.38375 4.014 3.8575 1.5 7.75 1.5C10.6397 1.5 11.899 2.73525 13.096 4.8675L14.404 4.1325C13.1987 1.98675 11.5585 0 7.75 0C2.98375 0 0.25 3.2805 0.25 9C0.25 14.2987 3.334 18 7.75 18C11.5585 18 13.1987 16.014 14.404 13.8675L13.096 13.1325C11.899 15.2655 10.6397 16.5 7.75 16.5Z" fill="#114635"/>
</svg>
