<svg width="57" height="48" viewBox="0 0 57 48" fill="none" xmlns="http://www.w3.org/2000/svg">
<g opacity="0.2">
<path d="M37.0375 1.26893C33.9375 2.00893 31.0173 3.30894 28.1073 4.56894C22.2473 7.10894 16.8575 10.1689 11.9775 14.3089C7.70747 17.9289 3.64744 22.0589 1.69744 27.3989C0.757438 29.9589 0.177526 32.6789 0.0375259 35.3989C-0.0824741 37.5889 0.0173599 40.1189 1.36736 41.9589C2.72736 43.8189 5.07741 44.6389 7.16741 45.3489C10.1274 46.3389 13.2574 46.9089 16.3774 47.0489C22.1774 47.2989 27.5276 45.5989 32.8376 43.4289C41.9176 39.7289 51.0274 34.1089 54.9374 24.6789C55.9674 22.1889 56.7175 19.4989 56.4875 16.7789C56.2675 14.0989 55.3575 11.5089 53.9975 9.18893C52.1475 6.01893 49.4274 3.22893 46.1474 1.55893C46.0274 1.32893 45.8075 1.13893 45.4675 1.05893C44.3375 0.788933 43.4774 0.298931 42.4174 0.228931C41.9874 0.138931 41.5473 0.0589301 41.1073 0.00893011C40.6073 -0.0510699 40.2974 0.198934 40.1474 0.528934C39.1074 0.758934 38.0675 1.02893 37.0575 1.26893H37.0375ZM51.5876 9.59893C54.0876 13.4789 54.8875 17.7189 53.4675 22.1289C50.6575 30.8789 42.8176 36.4689 34.8176 40.1389C30.5376 42.0989 25.8174 44.0789 21.1174 44.6389C15.8374 45.2689 9.79752 44.5489 5.02752 42.0989C3.07752 41.0989 2.39752 39.5689 2.27752 37.4289C2.14752 35.0989 2.49757 32.7489 3.08757 30.4989C3.67757 28.2489 4.52755 26.0389 5.80755 24.0889C7.26755 21.8689 9.26743 19.8889 11.1874 18.0689C15.7474 13.7389 21.0475 10.1389 26.7975 7.58893C29.7175 6.29893 32.6675 4.93893 35.7275 3.98893C37.2575 3.50893 38.8374 3.28893 40.3774 2.86893C40.9274 2.71893 41.5374 2.48893 42.1374 2.44893C46.0874 3.29893 49.4673 6.29893 51.5973 9.61893L51.5876 9.59893Z" fill="#F3F6E7"/>
<path d="M34.008 13.5592C34.058 12.9692 33.718 12.2892 32.958 12.1992C32.708 12.1692 32.458 12.1792 32.208 12.1792C32.088 12.1492 31.9679 12.1492 31.8579 12.1692C29.0179 12.2592 26.4579 13.8692 24.1679 15.4592C21.4779 17.3192 18.498 18.8592 16.248 21.2692C14.448 23.1992 13.0981 25.6392 12.0781 28.0692C11.2081 30.1492 10.7781 32.3992 12.7981 33.9492C14.6981 35.3992 17.418 35.6292 19.718 35.7592C22.318 35.9092 24.948 35.8992 27.528 35.4992C30.198 35.0892 32.7481 34.1092 34.8281 32.3692C37.0581 30.5092 38.3379 27.8692 39.6279 25.3292C40.9879 22.6792 42.4679 19.0992 40.4179 16.3892C38.8379 14.3092 36.048 14.6392 34.008 13.5692V13.5592ZM38.3679 22.7492C36.4779 27.1792 33.9979 31.4592 29.0979 32.8492C26.7779 33.5092 24.3479 33.5992 21.938 33.5692C19.9979 33.5392 18.0279 33.4992 16.1379 33.0092C15.3479 32.8092 14.268 32.5092 13.758 31.7992C13.268 31.1192 13.6379 30.2292 13.8879 29.5192C14.5879 27.5292 15.7481 25.4092 17.0481 23.7392C19.0181 21.2292 21.7779 19.8192 24.3479 18.0392C26.5079 16.5492 28.818 14.7492 31.468 14.4492C32.988 15.9992 35.0781 16.0892 37.0881 16.7492C39.8781 17.6592 39.2879 20.5892 38.3679 22.7392V22.7492Z" fill="#F3F6E7"/>
</g>
</svg>