<svg width="24" height="32" viewBox="0 0 24 32" fill="none" xmlns="http://www.w3.org/2000/svg">
<path d="M23.2219 13.5531L19.5657 1.13594C19.5118 0.961454 19.4036 0.80872 19.2569 0.699962C19.1102 0.591205 18.9327 0.5321 18.75 0.53125H5.25005C5.06744 0.5321 4.88986 0.591205 4.74316 0.699962C4.59647 0.80872 4.48831 0.961454 4.43442 1.13594L0.778173 13.5531C0.489497 14.52 0.559402 15.5586 0.975048 16.4781C1.87766 18.4661 3.29982 20.1737 5.09166 21.421C6.8835 22.6684 8.97865 23.4093 11.1563 23.5656V29.7812H6.37505C6.15127 29.7812 5.93666 29.8701 5.77843 30.0284C5.62019 30.1866 5.5313 30.4012 5.5313 30.625C5.5313 30.8488 5.62019 31.0634 5.77843 31.2216C5.93666 31.3799 6.15127 31.4688 6.37505 31.4688H17.625C17.8488 31.4688 18.0634 31.3799 18.2217 31.2216C18.3799 31.0634 18.4688 30.8488 18.4688 30.625C18.4688 30.4012 18.3799 30.1866 18.2217 30.0284C18.0634 29.8701 17.8488 29.7812 17.625 29.7812H12.8438V23.5656C15.0214 23.4093 17.1166 22.6684 18.9084 21.421C20.7003 20.1737 22.1224 18.4661 23.025 16.4781C23.4407 15.5586 23.5106 14.52 23.2219 13.5531ZM5.88286 2.21875H18.1172L21.1829 12.5687C19.6782 13.2578 16.6407 14.0031 12.3797 11.8656C8.47036 9.925 5.4188 10.0797 3.37974 10.6703L5.88286 2.21875ZM21.4922 15.7891C20.6658 17.6138 19.3309 19.1617 17.6474 20.2473C15.964 21.333 14.0032 21.9104 12 21.9104C9.99687 21.9104 8.03614 21.333 6.35265 20.2473C4.66917 19.1617 3.33429 17.6138 2.50786 15.7891C2.26711 15.234 2.22733 14.6124 2.39536 14.0312L2.78911 12.6953C4.36411 11.95 7.37349 11.2609 11.6204 13.3844C13.9969 14.5656 16.0782 14.9734 17.7797 14.9734C19.1063 14.9786 20.4208 14.7205 21.6469 14.2141C21.7583 14.7425 21.7043 15.2924 21.4922 15.7891Z" fill="#DD7129"/>
</svg>
