<svg width="32" height="16" viewBox="0 0 32 16" fill="none" xmlns="http://www.w3.org/2000/svg">
<path d="M8.125 0.125C3.78813 0.125 0.25 3.66313 0.25 8C0.25 12.3425 3.7825 15.875 8.125 15.875C11.4213 15.875 13.4339 14.0638 14.9808 11.8317C14.5195 11.0893 14.1325 10.3558 13.75 9.65263C12.3696 11.933 10.8228 13.625 8.125 13.625C5.02225 13.625 2.5 11.1027 2.5 8C2.5 4.88037 5.00537 2.375 8.125 2.375C9.94413 2.375 11.1006 3.02525 12.1683 4.13337C13.2359 5.24037 14.137 6.84013 15.0505 8.52763C15.9651 10.2151 16.8921 11.9904 18.25 13.4135C19.6079 14.8378 21.4799 15.875 23.875 15.875C28.2119 15.875 31.75 12.3369 31.75 8C31.75 3.6575 28.2175 0.125 23.875 0.125C20.5968 0.125 18.5706 1.87888 17.0193 4.0625C17.4805 4.7915 17.9024 5.50813 18.2849 6.20675C19.6562 3.99163 21.1863 2.375 23.875 2.375C26.9778 2.375 29.5 4.89725 29.5 8C29.5 11.1196 26.9946 13.625 23.875 13.625C22.0863 13.625 20.9613 12.9748 19.9026 11.8666C18.8429 10.7596 17.9384 9.15987 17.0193 7.47237C16.1012 5.78487 15.1562 4.00963 13.7849 2.58538C12.4135 1.16225 10.5415 0.125 8.125 0.125Z" fill="#DD7129"/>
</svg>
