<svg width="29" height="29" viewBox="0 0 29 29" fill="none" xmlns="http://www.w3.org/2000/svg">
<path d="M26 3C25.9456 2.00148 25.9454 2.00149 25.9451 2.00151L25.9443 2.00155L25.9415 2.0017L25.9317 2.00226L25.8954 2.00438C25.8638 2.00626 25.8176 2.00908 25.7576 2.01297C25.6377 2.02074 25.4626 2.03274 25.2388 2.04984C24.7912 2.08402 24.1481 2.13861 23.361 2.22053C21.7881 2.38422 19.6331 2.65775 17.3091 3.09743C14.9887 3.53643 12.4775 4.14517 10.2005 4.98543C7.94053 5.81941 5.82271 6.91303 4.36785 8.36789L4.36779 8.36795C2.21696 10.5191 1.00594 13.4348 0.999779 16.4768C0.996553 18.0705 1.55961 19.8519 2.21737 21.3052C2.55142 22.0432 2.92293 22.7255 3.28669 23.2905C3.63885 23.8376 4.02253 24.336 4.39445 24.6545L5.42458 25.5368L5.96284 24.2919C6.88095 22.1683 8.1108 20.1972 9.59271 18.4477C8.36267 20.7319 7.48775 23.2108 7.01613 25.8009L6.87867 26.5558L7.57232 26.8839C11.8394 28.9026 17.097 28.1672 20.6321 24.6321C22.0869 23.1772 23.1805 21.0594 24.0145 18.7995C24.8548 16.5225 25.4635 14.0113 25.9025 11.6909C26.3422 9.36686 26.6157 7.21186 26.7794 5.63898C26.8613 4.85185 26.9159 4.20879 26.9501 3.76117C26.9672 3.53732 26.9792 3.36223 26.987 3.24232C26.9909 3.18236 26.9937 3.13618 26.9956 3.10459L26.9977 3.06824L26.9983 3.05845L26.9984 3.05569L26.9985 3.05485C26.9985 3.05457 26.9985 3.05436 26 3ZM26 3L25.9456 2.00148L27.0591 1.94086L26.9985 3.05436L26 3Z" stroke="#DD7129" stroke-width="2"/>
</svg>
