<svg width="778" height="485" viewBox="0 0 778 485" fill="none" xmlns="http://www.w3.org/2000/svg">
<path d="M778 0C159.6 0 1 323.333 -1 485V0H778Z" fill="white"/>
<mask id="mask0_307_1811" style="mask-type:alpha" maskUnits="userSpaceOnUse" x="-1" y="0" width="779" height="485">
<path d="M778 0C159.6 0 1 323.333 -1 485V0H778Z" fill="#F3F6E7"/>
</mask>
<g mask="url(#mask0_307_1811)">
<path d="M-10.8503 248.775C6.97593 232.541 38.724 218.006 63.2848 226.98C70.2901 229.54 76.4398 233.29 82.7365 237.214C91.7191 242.811 100.753 248.953 110.391 253.306C121.541 258.342 129.948 264.033 142.732 264.243C148.492 264.337 155.133 265.006 160.7 263.305C168.009 261.072 174.376 254.688 180.386 250.181" stroke="white" stroke-opacity="0.2" stroke-width="2" stroke-linecap="round"/>
<path d="M-10.8503 208.541C6.97593 192.306 38.724 177.771 63.2848 186.746C70.2901 189.305 76.4398 193.055 82.7365 196.979C91.7191 202.577 100.753 208.719 110.391 213.072C121.541 218.108 129.948 223.799 142.732 224.008C148.492 224.103 155.133 224.772 160.7 223.071C168.009 220.838 174.376 214.454 180.386 209.947" stroke="white" stroke-opacity="0.2" stroke-width="2" stroke-linecap="round"/>
<path d="M-11 168.408C9.7872 152.261 46.8086 137.805 75.4489 146.731C83.6177 149.277 90.789 153.006 98.1315 156.909C108.606 162.477 119.14 168.586 130.379 172.915C143.382 177.924 153.185 183.584 168.092 183.793C174.808 183.887 182.552 184.552 189.044 182.86C197.568 180.639 204.993 174.29 212 169.807" stroke="white" stroke-opacity="0.2" stroke-width="2" stroke-linecap="round"/>
</g>
</svg>
