<svg width="123" height="116" viewBox="0 0 123 116" fill="none" xmlns="http://www.w3.org/2000/svg">
<path d="M44.1859 64.1052C49.2259 68.1272 56.0858 68.4698 62.0958 66.6691C68.6558 64.7021 74.1559 60.0244 73.9559 52.8414C73.8359 48.4964 71.7257 44.7973 68.2657 42.1159C65.7157 40.1391 62.9359 39.6987 59.9959 39.6204C60.0859 39.0137 59.7459 38.3482 58.9459 38.3874C55.7159 38.544 52.4058 39.1703 49.3858 40.3152C47.9358 40.8633 46.5258 41.5287 45.3158 42.4878C44.0258 43.5055 43.2358 44.8756 42.6058 46.3532C41.8358 48.1539 41.3058 50.0426 40.8058 51.9313C40.3958 53.4873 40.0258 55.0531 40.1358 56.6776C40.3458 59.6232 41.8559 62.2556 44.1759 64.1052H44.1859ZM43.8258 49.5239C44.3358 47.919 44.9058 46.1086 46.0458 44.8168C46.9858 43.7599 48.3759 43.0749 49.6859 42.5465C51.4959 41.8223 53.4359 41.3134 55.3959 40.9905C55.4959 41.4309 55.8359 41.8223 56.4359 41.8125C59.5359 41.7929 62.8358 41.3819 65.6358 42.9868C68.5258 44.6407 70.8059 47.508 71.4759 50.7276C72.0859 53.6634 71.6058 56.8243 69.8158 59.2904C68.1858 61.5314 65.6358 63.0483 63.0458 64.0073C57.8958 65.9156 52.0559 66.2777 47.1659 63.4495C45.0359 62.2262 43.2558 60.3767 42.6158 57.9987C41.8658 55.1901 42.9658 52.176 43.8158 49.5044L43.8258 49.5239Z" fill="#D9E0C0" fill-opacity="0.2"/>
<path d="M15.0255 79.5765C17.1655 83.5398 20.4156 86.2408 24.0956 88.7852C28.1256 91.5644 31.9456 94.5002 36.6556 96.1051C40.8656 97.5437 45.6355 97.1229 50.0255 97.1327C54.8055 97.1327 59.6855 96.937 64.2655 95.4788C68.8855 94.0109 72.9556 91.1045 76.9056 88.4133C80.9856 85.634 84.9357 82.6297 88.4757 79.1948C91.5657 76.2003 94.3957 72.9024 96.4457 69.1347C98.3457 65.6411 99.7156 61.8637 100.646 58.0178C102.546 50.1889 102.866 41.8316 101.166 33.9441C100.406 30.4211 99.2357 26.7415 97.2157 23.698C95.0057 20.3708 91.6957 18.7365 87.7057 18.3744C85.1757 18.1395 82.6356 18.3255 80.1056 18.4723C77.5756 18.6191 75.0355 18.5897 72.5255 18.9029C67.3755 19.539 62.4555 21.1439 57.5355 22.6901C55.0655 23.4632 52.5855 24.2167 50.0655 24.8332C42.3155 26.6045 34.6757 29.0902 28.7057 34.4529C25.5257 37.3104 23.1756 40.8726 20.0956 43.8475C18.5456 45.3448 16.9755 46.8714 15.7955 48.6721C14.4155 50.7761 13.8056 53.1737 13.4056 55.6104C12.7156 59.7499 11.5755 63.723 11.8055 67.9604C12.0255 71.9825 13.0657 76.0046 14.9957 79.5765H15.0255ZM14.4757 61.9224C14.9057 59.7988 15.3357 57.6948 15.7157 55.5615C16.1357 53.1835 16.8355 50.962 18.3255 49.0048C19.6355 47.2727 21.3056 45.8341 22.8456 44.3075C24.2956 42.8689 25.4855 41.2738 26.7855 39.708C31.5155 34.0223 37.7055 30.5678 44.8155 28.4736C46.7555 27.906 48.7157 27.4167 50.6857 26.9666C55.4657 25.7825 60.0855 24.1188 64.8155 22.7781C67.1655 22.1127 69.5457 21.5451 71.9657 21.183C74.3157 20.8307 76.6755 20.8601 79.0455 20.7329C83.2255 20.5176 88.2756 19.6857 92.1156 21.7995C95.1656 23.473 96.6757 26.9176 97.7557 30.0198C100.216 37.0756 100.526 44.8653 99.4957 52.2048C98.4857 59.4367 96.1057 66.8546 91.4657 72.6773C85.6857 79.9092 77.9255 85.3503 70.0755 90.2237C66.0055 92.7485 61.8255 94.2164 57.0155 94.6666C52.4555 95.0972 47.8157 94.9504 43.2457 94.8819C38.9257 94.8134 35.1457 93.4433 31.4757 91.2219C29.4457 89.9889 27.5656 88.4818 25.6056 87.1313C23.7456 85.8493 21.8457 84.5674 20.2557 82.9625C14.9757 77.6486 13.0357 69.0858 14.4757 61.9224Z" fill="#D9E0C0" fill-opacity="0.2"/>
<path d="M13.3159 94.9705C15.0059 97.8085 15.9759 100.969 17.7959 103.749C19.3059 106.058 20.7359 108.417 22.2759 110.716C23.2259 112.145 24.356 113.427 25.946 114.19C28.036 115.198 30.4561 115.433 32.7361 115.639C35.7461 115.913 38.8059 115.991 41.8059 115.639C48.1859 114.905 53.856 111.343 59.676 108.925C62.696 107.663 65.556 106.244 68.166 104.267C70.726 102.33 73.0059 100.089 75.2659 97.8182C80.0559 93.0133 84.666 88.1007 89.216 83.0902C97.856 73.5782 106.596 64.0955 112.456 52.6164C115.366 46.9307 118.246 41.1373 119.956 34.9819C121.516 29.3941 123.036 23.1506 121.176 17.4551C119.646 12.7969 117.356 8.20723 113.336 5.14419C108.586 1.51356 102.316 0.554523 96.446 0.309871C93.176 0.172867 89.8359 0.0554361 86.5859 0.495809C83.1859 0.955754 79.8859 1.88543 76.5659 2.69767C73.1859 3.5197 69.7859 4.45917 66.3459 4.99741C65.0959 5.19313 63.8459 4.97783 62.6059 5.27141C61.6759 5.49649 60.7659 5.78029 59.8559 6.06408C58.0859 6.60232 56.266 7.32648 54.426 7.59071C54.226 7.62007 54.066 7.69836 53.946 7.79622C47.696 10.5461 41.166 12.5914 35.166 15.8795C29.376 19.0502 24.016 22.8863 18.696 26.7616C13.696 30.402 8.98587 34.4143 5.27587 39.3563C1.58587 44.2689 0.465867 49.9448 0.275867 55.9339C-0.0741333 67.1194 -0.323919 79.1856 7.24608 88.3551C9.14608 90.6548 11.7459 92.4065 13.2859 94.9901L13.3159 94.9705ZM2.50609 63.7432C2.47609 58.126 2.16595 52.2347 3.86595 46.7937C5.62595 41.1471 10.1859 36.5868 14.6059 32.7605C19.1859 28.7971 24.306 25.2937 29.386 21.9664C34.756 18.4435 40.3459 15.5664 46.3559 13.2275C49.2759 12.0923 52.2059 10.9669 55.0659 9.7045C56.8059 9.45006 58.516 8.78461 60.186 8.26595C61.056 8.00173 61.9259 7.72772 62.8159 7.49286C63.9459 7.19927 65.046 7.35585 66.196 7.22863C69.436 6.87633 72.6459 5.86837 75.8159 5.13441C79.0059 4.39067 82.156 3.48057 85.376 2.90319C88.606 2.32581 91.856 2.38452 95.126 2.4726C98.286 2.55089 101.436 2.78575 104.506 3.53928C109.716 4.81147 113.836 7.56136 116.476 12.1706C117.686 14.2844 118.666 16.6135 119.286 18.9523C120.036 21.7609 119.846 24.7848 119.376 27.613C118.396 33.5629 116.416 39.2976 113.816 44.7484C111.176 50.2873 108.426 55.7186 104.946 60.8073C101.456 65.9059 97.4959 70.6815 93.3559 75.2907C89.1059 80.0174 84.8461 84.7539 80.4961 89.3827C78.3361 91.6824 76.0659 93.8745 73.8359 96.1057C71.7059 98.2488 69.556 100.402 67.156 102.271C64.666 104.218 61.876 105.628 58.956 106.851C56.056 108.074 53.2059 109.366 50.3559 110.697C47.5059 112.018 44.576 113.153 41.426 113.476C38.546 113.77 35.6261 113.691 32.7461 113.427C30.6661 113.231 28.3061 113.055 26.4861 111.949C25.0461 111.069 24.1759 109.542 23.3259 108.152C21.7959 105.637 20.0059 103.259 18.5759 100.695C17.0859 98.0335 16.266 94.9901 14.376 92.5436C12.676 90.3417 10.376 88.6683 8.65599 86.486C6.91599 84.2645 5.5059 81.7691 4.5559 79.1367C2.7659 74.1849 2.53586 68.92 2.51586 63.7236L2.50609 63.7432Z" fill="#D9E0C0" fill-opacity="0.2"/>
</svg>
