<svg width="364" height="151" viewBox="0 0 364 151" fill="none" xmlns="http://www.w3.org/2000/svg">
<path d="M1.16973 -0.32865C3.24618 0.0318451 4.45746 1.31521 6.14458 2.42553C8.03357 3.66563 10.2542 4.15591 12.3739 4.8048C17.0315 6.23236 21.0546 9.6066 24.3424 13.1106C30.8889 20.0898 35.0995 29.4338 38.0556 38.4318C39.5985 43.147 40.7809 47.9921 41.574 52.8948C42.3815 57.9273 42.3959 62.931 42.8141 67.9924C43.2611 73.2988 44.2272 78.5477 44.4291 83.8686C44.631 89.3337 44.4724 94.8276 44.4724 100.293C44.4724 114.972 43.7514 132.723 55.8208 143.437C62.1078 149.017 70.2694 150.603 78.4455 150.935C83.3482 151.137 88.2509 150.863 93.1104 150.2C98.3736 149.493 103.536 148.267 108.814 147.633C114.077 146.998 119.369 146.508 124.589 145.542C129.881 144.561 134.957 142.86 139.96 140.87C144.748 138.952 149.449 136.832 154.25 134.929C159.297 132.925 164.402 131.483 169.694 130.329C174.727 129.219 179.399 127.907 184.085 125.729C189.031 123.436 194.15 121.547 199.226 119.572C209.579 115.549 219.947 111.555 230.315 107.575C250.07 99.9899 269.998 92.7367 288.672 82.6717C293.445 80.105 298.391 77.9276 303.409 75.88C308.11 73.9477 312.782 71.9145 317.526 70.0688C322.082 68.2952 326.899 67.1272 331.181 64.7046C333.373 63.4645 335.392 61.9072 337.468 60.4796C339.804 58.879 342.126 57.2929 344.375 55.5913C351.369 50.3137 356.618 43.1038 359.92 35.0143C362.342 29.0877 363.15 23.017 363.337 16.6723C363.496 11.2793 363.453 5.85744 362.876 0.493279C362.386 -4.02012 361.795 -9.91781 358.449 -13.3641C357.209 -14.6475 355.508 -15.3829 353.705 -15.1666C351.657 -14.9215 351.629 -11.677 353.705 -11.9222C357.353 -12.3548 358.463 -6.45706 359.011 -3.61636C360.05 1.73338 360.18 7.28501 360.151 12.7213C360.122 17.5375 360.093 22.4835 359.011 27.1843C357.05 35.6776 352.508 43.7527 346.221 49.7946C342.674 53.1976 338.449 55.8509 334.411 58.6195C332.45 59.9605 330.547 61.3881 328.427 62.4696C326.163 63.6232 323.769 64.4307 321.376 65.2382C316.545 66.882 311.902 68.9152 307.187 70.8331C302.414 72.7653 297.626 74.6831 292.954 76.8605C288.311 79.0379 283.856 81.6046 279.27 83.883C274.699 86.1469 270.056 88.2666 265.369 90.2854C255.881 94.3662 246.22 98 236.573 101.691C226.465 105.556 216.371 109.449 206.277 113.343C201.23 115.304 196.183 117.265 191.136 119.226C186.652 120.971 182.34 123.249 177.812 124.864C172.895 126.623 167.632 127.301 162.599 128.628C157.581 129.954 152.78 131.973 148.021 133.992C143.19 136.025 138.389 138.145 133.428 139.846C128.468 141.548 123.378 142.586 118.186 143.278C113.14 143.941 108.078 144.388 103.06 145.167C98.0853 145.946 93.2258 147.085 88.1933 147.489C79.6568 148.166 69.7504 148.253 62.0646 143.927C48.4812 136.285 47.7169 119.053 47.7313 105.311C47.7313 99.8168 47.7313 94.3085 47.7313 88.8146C47.7313 83.5657 47.2987 78.4611 46.6498 73.2556C46.0442 68.3384 45.9865 63.4213 45.5395 58.4897C45.1213 53.861 44.3427 49.261 43.2468 44.7332C41.0261 35.6343 37.5076 26.7517 32.6482 18.7487C28.1204 11.2937 21.2566 4.01171 12.6768 1.48825C10.6292 0.882616 8.72576 0.320246 6.99538 -0.977536C5.42362 -2.15996 4.0249 -3.14051 2.03497 -3.48658C-0.0126439 -3.83266 -0.877885 -0.717985 1.16973 -0.35749V-0.32865Z" fill="#D9E0C0" fill-opacity="0.2"/>
<path d="M47.5727 14.4083C50.3701 20.5655 52.3745 27.04 53.9751 33.601C54.898 37.379 55.7054 41.2003 56.5418 45.0071C57.4214 49.0014 58.5029 52.9813 59.0941 57.0332C60.2044 64.8199 59.9882 72.7364 60.9975 80.5375C61.805 86.7524 63.2326 93.299 66.8231 98.5767C70.2118 103.551 75.2154 107.474 80.7094 109.882C94.4515 115.909 109.693 114.222 124.272 113.919C131.799 113.761 139.21 113.544 146.651 112.29C153.991 111.05 161.114 109.002 168.036 106.262C182.6 100.523 196.947 94.5247 212.189 90.8188C227.82 87.012 242.831 81.0854 258.116 76.1683C265.658 73.7313 273.142 71.0925 280.683 68.67C287.1 66.6224 293.762 65.4111 300.092 63.1184C306.408 60.8256 312.032 57.0044 317.396 53.0101C322.933 48.8716 328.341 44.1275 332.162 38.3163C339.098 27.8043 338.968 14.812 332.046 4.32884C330.273 1.63233 328.153 -0.80461 325.832 -3.03968C324.332 -4.48166 322.025 -2.18891 323.539 -0.74693C332.465 7.83285 337.209 20.205 331.917 32.0581C329.163 38.2298 324.332 43.1758 319.213 47.4729C316.545 49.7079 313.705 51.7411 310.806 53.6878C308.038 55.5336 305.269 57.4081 302.226 58.778C296.314 61.4601 289.825 62.7146 283.596 64.4306C276.516 66.3772 269.609 69.0449 262.615 71.3088C255.001 73.7602 247.388 76.1827 239.846 78.8504C232.68 81.3883 225.47 83.8252 218.159 85.8872C210.906 87.9349 203.58 89.521 196.428 91.9147C189.175 94.3372 182.066 97.1779 174.972 100.019C168.18 102.744 161.446 105.541 154.351 107.344C147.286 109.146 140.032 110.213 132.75 110.531C125.151 110.862 117.494 110.963 109.881 111.079C102.815 111.194 95.6915 111.064 88.8133 109.276C82.6128 107.661 76.9602 104.878 72.418 100.293C68.1353 95.9523 66.0877 90.3862 64.9052 84.5029C63.3767 76.9614 63.4921 69.2324 62.8432 61.6043C62.1943 54.0772 60.2621 46.7952 58.6471 39.4266C55.8929 26.867 52.4465 13.6584 44.905 3.00222C43.3332 0.781567 41.5884 -1.29489 39.512 -3.0541C37.9258 -4.39514 35.6186 -2.11681 37.2192 -0.761353C41.9345 3.23293 45.0492 8.84224 47.5727 14.3939V14.4083Z" fill="#D9E0C0" fill-opacity="0.2"/>
<path d="M68.2363 11.6975C71.6971 17.8259 72.519 24.3292 73.6437 31.1498C74.7829 38.0713 75.9798 45.0361 77.3785 51.9143C78.7484 58.6339 80.5941 65.2671 83.5646 71.4676C92.2886 89.7375 116.081 93.6741 134.265 92.8089C147.372 92.1888 160.581 89.4202 173.14 85.772C180.004 83.7821 186.652 81.2009 193.415 78.9226C200.322 76.601 207.301 74.4813 214.049 71.7415C217.38 70.3861 220.567 68.6557 223.927 67.43C227.272 66.2043 230.748 65.4401 234.223 64.647C241.058 63.0897 247.431 60.6816 253.805 57.7832C266.134 52.1883 278.318 45.858 289.97 38.9509C294.959 35.9949 299.876 32.5485 303.207 27.7035C306.394 23.0891 308.254 17.3068 308.888 11.7696C309.364 7.64554 308.744 3.21866 307.865 -0.818883C307.1 -4.32289 305.745 -8.56231 302.472 -10.509C300.842 -11.4751 299.011 -11.5905 297.194 -11.23C295.146 -10.8262 296.012 -7.69713 298.059 -8.10088C301.794 -8.83629 303.452 -4.75548 304.288 -1.82826C305.283 1.66133 305.86 5.54025 305.831 9.17404C305.788 14.6391 303.928 20.4359 301.073 25.0791C298.117 29.8664 293.329 33.183 288.585 36.0093C277.439 42.6568 265.773 48.641 254.007 54.135C247.835 57.0189 241.577 59.5857 234.929 61.1574C231.685 61.9217 228.397 62.585 225.21 63.5799C222.081 64.5461 219.212 65.988 216.241 67.3147C209.796 70.1842 203.062 72.3183 196.371 74.5246C189.896 76.6443 183.552 79.1101 177.063 81.1865C164.301 85.2529 150.977 88.209 137.61 89.3481C128.453 90.1268 119.052 89.6365 110.14 87.2861C101.474 84.9933 92.7933 80.6241 87.9338 72.7654C84.6028 67.3723 82.7715 60.9699 81.3295 54.8415C79.8299 48.4103 78.8637 41.8781 77.6957 35.3748C76.5565 29.0445 76.0663 22.3537 73.9466 16.2542C71.8846 10.342 68.1066 4.89136 64.4007 -0.0978928C62.6559 -2.44832 60.8101 -4.74107 58.8635 -6.93287C57.4792 -8.49021 55.1865 -6.19746 56.5708 -4.64013C61.0121 0.349124 64.9486 5.85749 68.2363 11.6687V11.6975Z" fill="#D9E0C0" fill-opacity="0.2"/>
<path d="M97.2486 22.1227C99.6423 32.0868 99.4549 42.6276 103.637 52.1447C107.227 60.3207 114.12 67.2855 122.7 70.0541C127.213 71.5105 131.813 71.2365 136.485 71.3663C141.936 71.5249 147.415 71.8998 152.866 71.5682C164.084 70.876 174.164 65.3532 184.835 62.2818C190.559 60.6235 196.442 59.643 202.254 58.3019C207.632 57.0619 212.809 55.3603 217.87 53.1829C227.834 48.8858 237.106 43.1612 247.085 38.8785C256.227 34.9563 265.355 30.9043 273.113 24.5308C276.804 21.4882 280.279 17.9698 282.428 13.6438C284.576 9.31789 285.73 4.44401 285.86 -0.386627C286.018 -6.21222 284.057 -14.5325 278.794 -17.8634C277.482 -18.6854 275.968 -19.0747 274.425 -18.9882C272.348 -18.8728 272.334 -15.6284 274.425 -15.7437C280.481 -16.0754 282.5 -5.98151 282.63 -1.49695C282.745 2.90109 281.75 7.51542 279.89 11.5097C277.914 15.7491 274.627 19.1089 271.065 22.065C263.855 28.0636 255.145 31.9858 246.58 35.6196C237.193 39.5995 228.411 44.8194 219.168 49.0877C214.395 51.2939 209.507 53.1252 204.417 54.4519C199.096 55.8217 193.659 56.759 188.31 58.028C182.96 59.3113 177.769 61.1138 172.592 62.9884C167.689 64.762 162.844 66.9394 157.682 67.819C152.664 68.6698 147.516 68.5256 142.455 68.3526C139.946 68.266 137.451 68.1507 134.942 68.093C132.577 68.0497 130.198 68.2084 127.848 67.9055C119.253 66.8096 112.116 60.8975 107.948 53.5146C102.454 43.7956 102.973 32.1589 100.464 21.5747C97.8976 10.7022 92.7641 0.507397 86.2176 -8.49056C85.0063 -10.1633 82.18 -8.54824 83.4201 -6.8467C89.7648 1.86286 94.7396 11.6395 97.2631 22.1515L97.2486 22.1227Z" fill="#D9E0C0" fill-opacity="0.2"/>
<path d="M118.562 18.1718C120.609 25.2087 121.157 32.9233 124.373 39.5708C127.141 45.2955 132.981 49.2898 138.317 52.39C141.114 54.0195 144.027 55.6345 147.113 56.6439C150.819 57.8551 154.798 58.1291 158.663 57.6965C166.652 56.8313 174.164 53.6445 181.821 51.4239C189.42 49.2321 197.149 47.4008 204.532 44.5312C212.276 41.5175 219.774 37.7107 227.229 34.0336C230.56 32.3898 234.064 30.9478 236.717 28.2657C239.082 25.872 241 23.1467 243.538 20.8972C249.032 16.0377 254.194 9.96697 254.309 2.20912C254.41 -4.77007 249.234 -10.0766 244.605 -14.6476C243.12 -16.1184 240.827 -13.8257 242.312 -12.3549C246.047 -8.66341 250.719 -4.29421 251.051 1.3151C251.426 7.91936 246.955 13.5431 242.312 17.6816C239.947 19.7869 237.929 22.0219 235.867 24.4156C233.545 27.1265 230.921 28.5973 227.763 30.1691C220.755 33.6587 213.703 37.0618 206.537 40.2197C199.644 43.2767 192.276 45.1513 185.037 47.1556C177.87 49.1456 170.877 51.8277 163.638 53.5436C160.033 54.3944 156.341 54.8847 152.636 54.5097C149.031 54.1492 145.801 52.7505 142.643 51.0634C137.451 48.3092 131.77 44.935 128.381 39.9746C126.319 36.9464 125.425 33.2694 124.647 29.7365C123.81 25.9874 123.089 22.2238 122.051 18.5035C120.984 14.7255 119.931 10.7312 118.187 7.19838C116.615 4.0116 113.99 1.27184 113.457 -2.34753C113.154 -4.40956 110.025 -3.52996 110.328 -1.48235C110.832 1.96398 113.068 4.70375 114.74 7.64539C116.572 10.8466 117.538 14.6246 118.562 18.143V18.1718Z" fill="#D9E0C0" fill-opacity="0.2"/>
</svg>
