<svg width="305" height="331" viewBox="0 0 305 331" fill="none" xmlns="http://www.w3.org/2000/svg">
<path d="M35.8851 76.1735C31.2051 82.3935 26.8851 88.8835 23.2651 95.7835C19.6951 102.584 16.6851 109.664 13.9651 116.844C11.1651 124.254 8.64509 131.754 6.78509 139.464C4.88509 147.354 3.54503 155.354 2.35503 163.374C-0.0849686 179.804 -1.07488 196.304 1.57512 212.764C2.88512 220.874 4.30512 229.094 6.44512 237.024C8.52512 244.714 11.3751 252.174 14.5151 259.494C16.0651 263.094 17.5851 266.744 19.4351 270.204C21.2451 273.594 23.675 276.144 26.095 279.074C28.545 282.044 30.775 285.074 33.475 287.844C36.145 290.574 38.915 293.204 41.615 295.904C46.745 301.054 52.1651 306.184 58.5051 309.834C61.6451 311.644 65.085 312.924 68.355 314.454C71.705 316.024 75.025 317.664 78.365 319.274C84.925 322.434 91.5851 325.484 98.5851 327.534C106.055 329.724 113.605 330.174 121.345 330.344C129.775 330.534 137.905 329.524 146.225 328.324C150.255 327.744 154.335 327.434 158.315 326.584C161.965 325.814 165.525 324.674 169.025 323.394C176.095 320.804 183.145 318.004 189.965 314.804C196.795 311.594 203.015 307.684 208.875 302.934C215.125 297.864 222.065 293.734 228.005 288.274C233.675 283.054 239.715 278.284 245.375 273.074C250.895 267.984 255.475 262.024 259.885 255.974C264.445 249.714 267.255 242.554 270.115 235.404C273.085 227.984 275.665 220.384 277.355 212.564C279.115 204.464 279.635 196.174 279.675 187.894C279.695 183.874 279.875 179.754 279.135 175.794C278.755 173.724 278.265 171.714 278.165 169.604C278.075 167.554 278.165 165.504 278.225 163.454C278.445 155.214 277.525 146.764 279.305 138.654C281.025 130.764 284.915 123.734 288.295 116.474C289.965 112.894 292.035 109.524 293.775 105.974C295.365 102.734 296.705 99.3735 297.895 95.9635C300.425 88.7335 302.505 81.3335 303.515 73.7235C304.515 66.2235 305.065 57.8935 302.685 50.5935C301.595 47.2435 299.665 44.2435 297.575 41.4435C295.505 38.6835 293.385 35.9035 291.125 33.3035C286.525 28.0035 280.745 23.6835 274.595 20.3335C268.125 16.8135 260.905 14.3735 253.835 12.3335C250.005 11.2335 246.095 10.6135 242.145 10.0735C238.315 9.55354 234.505 8.92354 230.645 8.59354C226.685 8.25354 222.835 7.85354 218.945 7.05354C214.975 6.24354 210.925 6.48354 206.895 6.49354C205.445 6.49354 205.445 8.75354 206.895 8.74354C211.055 8.73354 215.165 8.51354 219.245 9.42354C222.995 10.2635 226.825 10.5135 230.645 10.8335C234.495 11.1635 238.315 11.7835 242.135 12.3135C245.875 12.8335 249.585 13.4435 253.225 14.4935C266.975 18.4535 280.605 24.2535 290.015 35.4635C294.455 40.7535 299.525 46.4735 301.095 53.3635C302.795 60.8335 302.105 69.0535 300.805 76.5335C299.525 83.8935 297.355 91.1135 294.715 98.0935C292.055 105.134 288.065 111.534 284.935 118.354C281.785 125.214 278.335 131.684 276.875 139.184C275.385 146.844 276.135 154.764 275.975 162.524C275.895 166.414 275.725 170.204 276.475 174.044C277.265 178.044 277.385 181.914 277.405 185.984C277.435 194.274 277.075 202.604 275.415 210.754C273.895 218.214 271.545 225.474 268.795 232.564C266.035 239.694 263.305 247.124 258.905 253.434C254.765 259.384 250.235 265.304 244.975 270.314C239.575 275.474 233.595 279.974 228.115 285.054C225.245 287.714 222.365 290.254 219.165 292.524C216.035 294.754 212.885 296.954 209.845 299.294C206.845 301.594 203.995 304.054 200.845 306.154C197.805 308.184 194.605 309.984 191.335 311.614C184.775 314.894 177.915 317.574 171.075 320.204C167.585 321.544 164.055 322.804 160.435 323.754C156.675 324.734 152.885 325.164 149.055 325.664C140.945 326.724 132.975 328.124 124.765 328.114C117.085 328.114 109.305 327.944 101.825 326.064C94.8551 324.314 88.2251 321.454 81.745 318.394C75.3351 315.354 68.915 312.344 62.475 309.364C55.925 306.324 50.4051 301.384 45.2851 296.384C40.1151 291.334 34.575 286.384 30.105 280.684C29.045 279.324 28.0751 277.914 26.9251 276.624C25.6151 275.144 24.2151 273.744 23.1251 272.084C21.0351 268.924 19.5351 265.404 18.0151 261.954C14.8451 254.754 11.875 247.454 9.59502 239.914C7.28502 232.264 5.88514 224.354 4.46514 216.504C3.02514 208.554 2.13506 200.594 2.13506 192.504C2.12506 176.534 4.53504 160.374 7.86504 144.784C11.045 129.914 16.255 115.304 22.845 101.594C29.495 87.7735 38.6351 75.4135 48.7951 63.9835C53.8251 58.3135 59.145 52.9335 64.475 47.5635C69.725 42.2735 74.9151 36.9235 80.4551 31.9335C86.0751 26.8535 92.095 22.4335 98.475 18.3735C104.925 14.2735 111.635 10.4235 118.865 7.88354C122.195 6.71354 125.575 5.78354 128.835 4.41354C129.865 3.98354 130.845 3.49354 131.835 2.99354C132.335 2.74354 134.155 1.76354 134.205 2.43354C134.325 3.86354 136.575 3.88354 136.455 2.43354C136.255 0.133538 134.455 -0.406461 132.455 0.273539C131.495 0.603539 130.605 1.12354 129.695 1.57354C128.085 2.38354 126.375 3.01354 124.675 3.61354C121.075 4.88354 117.425 5.91354 113.905 7.41354C110.285 8.95354 106.785 10.7735 103.385 12.7435C96.7651 16.5735 90.285 20.7835 84.355 25.6135C78.345 30.5035 72.815 35.9635 67.355 41.4535C56.325 52.5635 45.315 63.6535 35.875 76.1835L35.8851 76.1735Z" fill="#D9E0C0" fill-opacity="0.2"/>
<path d="M125.225 28.8344C122.225 30.5044 119.155 31.9944 116.315 33.9344C110.795 37.6944 105.975 42.3444 100.745 46.4844C97.8853 48.7444 94.9153 50.8844 92.0453 53.1444C89.2353 55.3644 86.3753 57.4244 83.9353 60.0644C82.8453 61.2444 81.7953 62.4544 80.6953 63.6244C79.4853 64.8944 78.1354 66.0244 76.9554 67.3244C74.7254 69.7844 73.0054 72.6344 70.9554 75.2244C66.6054 80.7044 61.5853 85.5044 57.8553 91.4744C56.0253 94.4044 53.6353 96.8944 51.6553 99.7044C49.5153 102.734 47.7253 106.044 45.8253 109.224C42.1053 115.444 38.2453 121.524 35.1153 128.084C32.0953 134.424 29.5653 141.004 27.5553 147.724C25.4853 154.634 23.4353 161.584 21.5353 168.534C19.5653 175.754 18.4653 183.004 18.3753 190.494C18.3253 194.374 18.4453 198.254 18.4853 202.134C18.5253 205.864 18.5853 209.484 19.1953 213.174C19.8053 216.854 20.7153 220.474 21.3953 224.134C21.9953 227.344 22.4253 230.584 23.0153 233.794C24.1753 240.084 25.7453 246.234 28.7753 251.914C34.9253 263.454 44.6552 273.074 54.8452 281.084C64.6452 288.784 75.5353 295.934 87.6353 299.364C93.8953 301.144 100.515 301.884 107.015 301.354C114.235 300.774 121.155 298.544 128.085 296.584C135.125 294.594 142.265 293.104 149.225 290.814C156.095 288.554 162.825 285.854 169.385 282.814C175.955 279.764 182.365 276.394 188.285 272.204C191.165 270.164 194.135 268.614 197.305 267.084C200.455 265.564 203.335 263.634 206.235 261.684C212.065 257.764 217.785 253.604 222.935 248.814C225.375 246.544 227.675 244.124 230.015 241.764C232.345 239.414 234.645 237.034 236.665 234.404C238.705 231.744 240.395 228.794 242.265 226.004C244.255 223.054 246.255 220.104 248.005 217.014C251.475 210.874 253.575 204.124 254.685 197.184C255.805 190.214 256.045 183.154 256.135 176.114C256.235 168.634 255.135 161.404 254.205 154.004C253.735 150.294 253.375 146.554 253.475 142.814C253.555 139.654 255.335 137.444 256.515 134.644C257.185 133.054 257.465 131.394 257.805 129.714C258.205 127.734 258.885 125.924 259.715 124.084C261.225 120.744 262.985 117.534 264.555 114.224C267.545 107.944 270.475 101.384 272.085 94.5944C273.655 88.0044 273.235 81.3844 271.775 74.8044C270.245 67.9344 266.695 62.0044 262.965 56.1244C261.425 53.6944 259.685 51.3844 257.675 49.3144C255.575 47.1444 253.185 45.4144 250.795 43.5944C248.325 41.7144 246.565 39.0444 243.805 37.5244C242.395 36.7544 240.865 36.2544 239.375 35.6644C237.735 35.0144 236.225 34.1244 234.705 33.2444C228.795 29.8444 222.965 26.2044 216.545 23.8044C213.275 22.5844 209.875 21.9844 206.525 21.0344C203.105 20.0744 199.735 18.9244 196.215 18.3744C192.585 17.8044 188.975 17.1344 185.355 16.4844C181.845 15.8544 178.325 15.6544 174.785 15.2744C167.575 14.5144 160.275 15.0644 153.305 17.0744C146.825 18.9844 140.355 20.6544 134.335 23.7844C131.255 25.3844 128.275 27.1744 125.245 28.8644L125.225 28.8344ZM153.885 19.2144C161.075 17.1344 168.375 16.8344 175.795 17.6044C179.425 17.9844 182.975 18.2644 186.565 18.9544C190.065 19.6244 193.625 20.0644 197.115 20.7744C200.425 21.4444 203.625 22.5544 206.875 23.4344C210.235 24.3344 213.585 24.9944 216.835 26.2844C223.085 28.7644 228.775 32.4444 234.605 35.7544C235.885 36.4844 237.165 37.1544 238.535 37.7044C240.195 38.3644 241.945 38.8944 243.445 39.8944C245.975 41.5844 247.795 44.1644 250.275 45.9444C255.235 49.4944 258.975 53.8244 262.115 59.0244C263.885 61.9544 265.735 64.8444 267.175 67.9444C268.645 71.1344 269.525 74.5644 270.115 78.0144C270.675 81.2444 271.055 84.5744 270.855 87.8544C270.645 91.3544 269.795 94.7944 268.725 98.1144C266.595 104.714 263.625 111.084 260.505 117.254C258.915 120.404 257.105 123.634 256.095 127.044C255.625 128.624 255.445 130.264 255.045 131.854C254.645 133.464 253.915 134.864 253.125 136.314C251.615 139.064 251.165 141.524 251.205 144.654C251.255 148.304 251.665 151.934 252.145 155.544C252.615 159.054 253.165 162.554 253.515 166.084C253.885 169.754 253.915 173.404 253.855 177.084C253.645 190.964 252.515 204.954 245.285 217.154C243.515 220.144 241.535 223.004 239.605 225.894C237.765 228.634 236.125 231.544 234.015 234.094C231.965 236.584 229.675 238.874 227.395 241.154C225.025 243.524 222.705 245.964 220.215 248.204C215.055 252.844 209.385 256.854 203.625 260.684C200.775 262.574 197.925 264.264 194.835 265.734C191.775 267.194 189.075 268.894 186.295 270.814C180.475 274.844 174.185 278.094 167.755 281.054C161.205 284.074 154.485 286.714 147.615 288.924C140.815 291.114 133.835 292.554 126.965 294.514C120.245 296.424 113.495 298.614 106.485 299.104C93.5553 299.994 81.3253 295.714 70.3753 289.104C59.4553 282.514 49.2153 274.374 40.7353 264.824C36.5053 260.064 32.6953 254.864 29.8853 249.134C27.0853 243.424 25.8353 237.084 24.7653 230.854C24.2153 227.604 23.7554 224.354 23.0854 221.124C22.3354 217.504 21.4453 213.894 21.0153 210.214C20.5853 206.604 20.7353 202.954 20.6753 199.324C20.6153 195.444 20.5353 191.564 20.6753 187.684C20.9453 180.474 22.3853 173.534 24.3853 166.614C26.3353 159.854 28.1853 153.034 30.3053 146.324C32.4053 139.654 35.0253 133.144 38.1553 126.894C41.3453 120.524 45.2153 114.574 48.8553 108.464C50.6753 105.414 52.4054 102.254 54.5854 99.4444C56.6354 96.8044 58.6652 94.2744 60.4753 91.4644C64.1553 85.7544 69.2053 81.1844 73.2953 75.7944C75.3353 73.1144 77.1053 70.2144 79.5253 67.8544C81.8253 65.6044 83.9553 63.2444 86.1753 60.9244C88.6053 58.3944 91.5153 56.3744 94.2653 54.2044C97.0453 52.0144 99.9354 49.9544 102.705 47.7444C107.825 43.6544 112.575 39.0844 118.045 35.4444C120.845 33.5844 123.865 32.1444 126.795 30.5044C129.675 28.8844 132.515 27.1944 135.455 25.6644C141.295 22.6344 147.605 21.0344 153.885 19.1844V19.2144Z" fill="#D9E0C0" fill-opacity="0.2"/>
<path d="M97.9252 76.254C94.1352 80.324 90.5051 84.444 87.2252 88.944C83.9151 93.494 80.8852 98.234 77.5752 102.784C74.2552 107.354 70.7452 111.574 68.4252 116.794C67.2452 119.444 66.2252 122.154 64.9752 124.774C63.7652 127.304 62.4552 129.764 61.3952 132.354C59.2552 137.574 57.7352 143.024 56.0552 148.404C54.2852 154.114 52.5152 159.754 51.3752 165.644C49.2852 176.394 48.5852 187.404 50.0052 198.284C50.6952 203.614 51.8452 208.894 53.6752 213.954C55.4552 218.854 57.6752 223.654 59.8652 228.384C64.3052 238.004 69.7053 247.034 77.4653 254.354C81.0853 257.774 85.1252 260.464 90.0352 261.604C95.5052 262.884 101.165 262.544 106.725 262.414C112.585 262.274 118.435 262.684 124.295 262.624C130.065 262.564 135.685 261.684 141.305 260.394C144.225 259.724 147.135 258.974 150.055 258.274C152.925 257.584 155.855 257.084 158.705 256.344C164.005 254.974 168.915 252.454 173.715 249.874C178.365 247.374 183.265 245.484 187.955 243.084C192.835 240.584 196.665 236.734 201.245 233.784C203.505 232.324 206.035 231.284 208.215 229.714C210.065 228.384 211.645 226.764 213.095 225.014C216.365 221.064 219.615 217.024 222.455 212.744C225.505 208.134 228.145 203.214 230.095 198.034C231.085 195.394 231.865 192.674 232.615 189.954C233.345 187.324 234.135 184.694 234.645 182.014C235.695 176.504 235.445 170.974 234.515 165.464C233.525 159.624 231.835 153.874 231.355 147.954C230.455 137.064 237.135 127.364 241.895 118.154C243.095 115.834 244.195 113.424 244.925 110.914C245.645 108.434 245.835 105.894 245.855 103.324C245.895 98.064 245.215 92.754 243.755 87.694C242.285 82.584 239.965 77.844 236.765 73.594C235.125 71.414 233.235 69.394 231.735 67.124C230.265 64.904 229.235 62.414 227.445 60.404C225.805 58.564 223.695 57.164 221.875 55.504C219.875 53.684 217.685 52.054 215.435 50.554C210.795 47.454 205.825 44.814 201.035 41.954C196.175 39.044 191.215 37.034 185.655 35.904C180.195 34.794 174.585 34.504 169.045 35.104C163.495 35.704 158.075 37.114 152.925 39.274C152.875 39.294 152.835 39.324 152.795 39.344C152.745 39.354 152.705 39.364 152.655 39.384C150.015 40.514 147.535 41.894 144.985 43.194C142.505 44.464 139.975 45.634 137.455 46.804C132.485 49.094 127.475 51.354 122.815 54.234C113.355 60.074 105.445 68.184 97.9152 76.264L97.9252 76.254ZM139.605 48.274C144.355 46.074 148.895 43.434 153.695 41.374C164.065 37.064 175.445 35.884 186.425 38.364C189.055 38.954 191.685 39.694 194.155 40.794C196.715 41.934 199.115 43.414 201.505 44.864C206.065 47.634 210.825 50.084 215.225 53.124C217.465 54.674 219.455 56.444 221.515 58.214C223.455 59.884 225.535 61.294 226.955 63.464C228.355 65.594 229.415 67.884 231.005 69.894C232.665 72.014 234.415 74.074 235.955 76.284C241.915 84.814 244.135 95.724 243.515 106.004C243.205 111.224 240.605 115.944 238.105 120.414C235.625 124.844 233.255 129.284 231.505 134.064C229.695 138.984 228.635 144.094 229.245 149.344C229.895 154.904 231.355 160.324 232.305 165.834C233.255 171.374 233.455 176.964 232.255 182.484C231.105 187.764 229.605 193.194 227.615 198.224C225.645 203.194 223.015 207.914 220.025 212.334C217.195 216.504 214.015 220.604 210.675 224.394C209.145 226.134 207.425 227.674 205.415 228.844C203.135 230.154 200.825 231.304 198.655 232.814C196.455 234.344 194.435 236.064 192.335 237.724C190.305 239.314 188.025 240.574 185.715 241.704C181.145 243.924 176.495 245.854 172.005 248.244C167.165 250.834 162.205 253.294 156.815 254.484C151.285 255.704 145.785 257.064 140.255 258.324C134.505 259.634 128.795 260.384 122.895 260.374C117.285 260.374 111.685 260.024 106.075 260.174C100.655 260.314 95.0852 260.644 89.7952 259.214C84.8352 257.884 81.0552 254.754 77.4852 251.214C73.7952 247.544 70.6553 243.404 67.9553 238.964C65.2953 234.594 63.0453 229.984 60.9553 225.314C58.8453 220.614 56.6252 215.884 55.0652 210.964C51.8852 200.944 51.0352 190.214 51.7452 179.764C52.1352 174.124 53.0152 168.514 54.2452 162.994C55.4752 157.494 57.2852 152.194 58.9252 146.814C60.5652 141.444 62.1452 136.034 64.4752 130.904C65.6252 128.374 66.9752 125.944 68.0752 123.394C69.1652 120.874 70.1452 118.304 71.3652 115.844C73.7652 110.964 77.4652 106.904 80.5752 102.484C83.6852 98.054 86.6452 93.524 89.8652 89.174C93.1852 84.684 96.9452 80.614 100.755 76.544C104.465 72.594 108.255 68.714 112.305 65.094C116.335 61.494 120.605 58.124 125.285 55.384C129.895 52.684 134.785 50.514 139.635 48.274H139.605Z" fill="#D9E0C0" fill-opacity="0.2"/>
<path d="M101.605 100.183C96.4751 107.353 93.3952 115.733 90.1952 123.883C89.3852 125.963 88.8151 128.103 88.2251 130.253C87.5751 132.633 86.7352 134.823 85.6852 137.043C83.7352 141.143 82.6751 145.493 81.7851 149.933C81.3051 152.343 81.1052 154.784 80.7152 157.203C80.3752 159.284 79.8352 161.323 79.6652 163.433C79.4652 165.933 79.6251 168.493 79.6151 170.993C79.6151 173.453 79.5951 175.913 79.5951 178.373C79.5951 187.773 79.8851 197.283 83.5151 206.093C86.7151 213.873 91.0151 221.443 96.9951 227.443C99.7251 230.184 102.835 232.594 106.265 234.394C109.585 236.134 113.655 237.813 117.455 237.903C119.605 237.953 121.705 237.343 123.775 236.873C126.005 236.353 128.225 236.324 130.495 236.133C135.265 235.734 139.975 234.823 144.675 233.903C149.335 232.993 153.985 231.984 158.565 230.734C162.915 229.544 167.395 228.304 171.305 225.994C174.915 223.854 178.095 221.083 181.665 218.883C185.325 216.613 189.315 214.903 192.595 212.063C195.815 209.283 198.825 206.103 201.625 202.903C204.425 199.713 207.005 196.294 209.065 192.574C210.125 190.663 210.915 188.673 211.815 186.693C212.745 184.663 213.975 182.794 215.015 180.814C216.885 177.264 217.515 173.553 217.505 169.563C217.495 165.703 216.915 161.953 215.615 158.323C214.215 154.413 212.235 150.563 211.815 146.373C211.355 141.823 213.085 137.373 214.945 133.303C215.945 131.113 216.875 128.963 217.555 126.653C218.195 124.493 218.665 122.233 219.735 120.233C220.815 118.214 221.685 116.353 222.005 114.053C222.335 111.713 222.565 109.423 223.155 107.123C223.685 105.063 224.305 103.023 224.635 100.924C224.965 98.7835 224.915 96.6335 225.015 94.4835C225.115 92.4435 225.215 90.3135 224.655 88.3235C224.065 86.1935 222.695 84.3835 221.905 82.3335C220.405 78.4435 218.865 74.7835 216.305 71.4635C207.305 59.7635 192.095 52.6335 177.455 52.2035C173.715 52.0935 169.975 52.4635 166.335 53.3035C161.865 53.9435 157.865 55.9435 153.875 57.9535C149.705 60.0535 145.595 62.2735 141.585 64.6735C137.635 67.0335 133.785 69.5735 130.065 72.3035C126.345 75.0335 122.485 77.5835 118.855 80.4335C115.315 83.2135 112.335 86.4535 109.545 89.9735C106.875 93.3535 104.095 96.7035 101.595 100.203L101.605 100.183ZM121.115 81.4835C124.655 78.7835 128.345 76.2835 131.945 73.6735C139.225 68.4135 146.995 63.9035 155.015 59.8735C158.845 57.9435 162.645 56.0635 166.935 55.4535C181.375 52.1235 197.365 57.0135 208.505 66.5335C211.045 68.7035 213.395 71.1535 215.325 73.8835C216.435 75.4535 217.375 77.1235 218.155 78.8835C219.035 80.8735 219.635 82.9835 220.615 84.9235C221.635 86.9435 222.675 88.7235 222.805 91.0335C222.925 93.1335 222.685 95.2535 222.665 97.3535C222.625 101.663 220.935 105.573 220.275 109.773C219.915 112.053 219.945 114.453 219.055 116.613C218.285 118.503 217.145 120.143 216.525 122.113C215.845 124.273 215.325 126.483 214.545 128.613C213.765 130.753 212.675 132.763 211.805 134.873C210.215 138.743 209.085 142.883 209.645 147.103C210.165 151.043 211.875 154.643 213.235 158.333C214.585 161.983 215.245 165.653 215.255 169.553C215.265 173.593 214.535 177.073 212.555 180.613C211.515 182.483 210.385 184.294 209.555 186.273C208.755 188.163 207.935 190.004 206.925 191.794C204.855 195.454 202.285 198.803 199.485 201.934C196.745 204.993 193.845 208.124 190.675 210.744C187.445 213.424 183.485 215.024 179.965 217.274C176.505 219.494 173.375 222.194 169.815 224.244C165.985 226.444 161.545 227.584 157.305 228.734C152.935 229.913 148.515 230.863 144.085 231.723C139.435 232.633 134.765 233.543 130.035 233.903C127.855 234.073 125.735 234.113 123.595 234.593C121.575 235.043 119.545 235.694 117.455 235.644C115.505 235.604 113.455 234.914 111.625 234.274C109.875 233.664 108.195 232.904 106.575 231.994C99.5952 228.074 94.3451 221.754 90.3651 214.924C88.2351 211.274 86.3151 207.423 84.8851 203.443C83.3151 199.074 82.5252 194.473 82.1652 189.854C81.8152 185.324 81.8351 180.773 81.8451 176.233C81.8451 173.733 81.8651 171.243 81.8651 168.743C81.8651 166.443 81.7351 164.123 82.1051 161.843C82.4351 159.824 82.9251 157.833 83.1451 155.793C83.4151 153.293 83.8652 150.833 84.4152 148.373C84.9152 146.133 85.4051 143.863 86.1551 141.693C86.8451 139.713 87.8352 137.893 88.6752 135.973C90.4252 131.953 91.1451 127.574 92.7551 123.483C94.3051 119.523 95.8351 115.553 97.6351 111.693C99.4051 107.883 101.435 104.183 103.925 100.793C106.495 97.3035 109.235 93.8835 111.955 90.5135C114.685 87.1335 117.655 84.1135 121.115 81.4735V81.4835Z" fill="#D9E0C0" fill-opacity="0.2"/>
<path d="M108.435 182.954C109.315 186.254 110.675 189.444 112.205 192.484C114.965 197.944 118.055 203.094 122.965 206.864C127.305 210.204 132.515 212.504 137.915 213.424C143.625 214.394 148.915 213.594 154.245 211.434C166.145 206.604 176.415 198.514 184.815 188.874C189.145 183.894 193.425 178.544 195.555 172.214C196.615 169.074 197.065 165.714 196.635 162.414C196.185 159.044 194.835 155.924 193.765 152.734C192.685 149.484 192.115 146.184 192.615 142.764C193.105 139.374 194.365 136.164 195.315 132.884C196.345 129.294 197.045 125.654 198.175 122.084C199.235 118.744 200.245 115.414 200.855 111.964C201.915 105.874 202.075 99.5739 200.715 93.5239C200.055 90.6139 199.025 87.7739 197.605 85.1539C196.105 82.3939 194.085 80.1239 192.065 77.7339C189.915 75.1939 187.775 72.6839 185.065 70.7139C185.015 70.6839 184.975 70.6539 184.925 70.6339C184.995 70.6339 184.725 70.4739 184.805 70.5739H184.795C184.675 70.4539 184.535 70.3439 184.415 70.2239C183.995 69.8339 183.585 69.4239 183.135 69.0539C181.835 67.9639 180.395 67.1239 178.805 66.5139C176.395 65.5839 173.755 65.2639 171.185 65.2539C169.545 65.2539 168.015 65.3739 166.475 65.9839C164.825 66.6439 163.335 67.6039 161.815 68.5039C160.435 69.3139 159.045 70.0739 157.735 70.9939C156.165 72.0939 154.655 73.3039 153.045 74.3539C150.225 76.1939 146.945 77.1639 144.255 79.2239C141.555 81.2939 139.175 83.9539 136.855 86.4339C134.585 88.8439 132.415 91.3439 130.375 93.9539C126.255 99.2139 122.625 104.874 119.935 111.004C118.585 114.084 117.615 117.274 116.515 120.444C115.315 123.894 113.895 127.264 112.595 130.674C109.925 137.704 108.225 145.044 107.395 152.514C106.975 156.254 106.995 159.974 106.895 163.724C106.805 167.304 106.745 170.844 107.095 174.414C107.375 177.274 107.705 180.174 108.445 182.954H108.435ZM109.165 162.034C109.245 154.694 110.075 147.564 111.825 140.424C113.505 133.584 116.535 127.234 118.815 120.604C119.905 117.424 120.885 114.254 122.285 111.194C123.625 108.264 125.175 105.434 126.885 102.714C130.285 97.3139 134.325 92.3539 138.705 87.7239C140.905 85.3939 143.145 82.8239 145.725 80.8939C148.305 78.9639 151.465 78.0439 154.155 76.2939C155.645 75.3239 157.035 74.2239 158.485 73.1939C159.915 72.1739 161.415 71.3239 162.925 70.4439C164.245 69.6739 165.535 68.8139 166.945 68.2039C168.565 67.5039 170.225 67.4639 171.965 67.5139C175.725 67.6439 179.375 68.6339 182.175 71.2239C182.705 71.7139 183.205 72.2739 183.855 72.6039C183.875 72.6239 183.885 72.6339 183.905 72.6539C186.665 74.6639 188.785 77.3839 190.985 79.9539C192.965 82.2639 194.805 84.5339 196.155 87.2939C198.755 92.5839 199.605 98.5839 199.395 104.424C199.285 107.384 198.915 110.334 198.305 113.234C197.565 116.784 196.355 120.194 195.305 123.654C194.315 126.914 193.755 130.274 192.755 133.524C191.805 136.614 190.735 139.664 190.325 142.884C189.925 146.044 190.305 149.174 191.225 152.214C192.105 155.124 193.335 157.914 194.055 160.884C195.685 167.684 192.845 174.444 189.015 179.964C182.005 190.054 172.595 199.024 161.945 205.174C157.085 207.984 151.525 210.864 145.875 211.494C140.675 212.064 135.305 210.994 130.565 208.834C125.735 206.634 121.275 203.254 118.365 198.774C114.895 193.434 111.645 187.394 110.295 181.124C108.935 174.794 109.085 168.474 109.155 162.044L109.165 162.034Z" fill="#D9E0C0" fill-opacity="0.2"/>
<path d="M124.545 164.834C125.105 166.984 125.925 169.064 126.575 171.194C127.605 174.584 129.075 177.714 131.735 180.134C134.135 182.314 137.125 183.724 140.255 184.534C143.545 185.394 147.085 185.744 150.475 185.634C154.435 185.504 157.805 183.934 161.195 182.024C163.185 180.904 164.955 179.534 166.805 178.204C168.385 177.064 170.165 176.274 171.745 175.154C174.695 173.064 175.955 169.094 176.645 165.704C177.425 161.824 177.505 157.794 177.065 153.864C176.855 152.014 176.535 150.204 176.115 148.394C175.555 145.984 175.535 143.514 175.915 141.074C176.635 136.444 178.505 132.144 180.225 127.824C181.925 123.544 183.005 119.034 183.405 114.454C183.615 112.064 183.635 109.644 183.415 107.254C183.215 105.064 182.425 103.194 181.645 101.164C180.835 99.0639 180.775 96.7839 179.915 94.7139C179.155 92.8739 178.055 91.1439 176.655 89.7339C175.415 88.4839 173.855 87.4439 172.085 87.1939C172.055 87.1939 172.035 87.1939 172.005 87.1939C171.935 87.1839 171.875 87.1539 171.785 87.1539C167.785 87.1439 163.955 87.2439 160.315 89.1039C156.615 90.9939 153.585 93.8639 150.865 96.9539C149.455 98.5539 148.095 100.194 146.605 101.714C145.105 103.234 143.545 104.694 142.055 106.224C138.895 109.494 136.545 113.124 134.745 117.294C130.955 126.074 128.265 135.124 125.715 144.324C125.065 146.664 124.355 148.964 124.055 151.374C123.775 153.654 123.785 155.954 123.815 158.254C123.835 160.504 123.975 162.654 124.545 164.844V164.834ZM126.045 156.444C126.045 154.254 126.115 152.064 126.545 149.914C126.985 147.694 127.715 145.514 128.315 143.324C128.915 141.134 129.515 138.934 130.135 136.744C131.385 132.384 132.805 128.104 134.475 123.884C136.055 119.894 137.525 115.804 139.935 112.224C142.215 108.854 145.335 106.184 148.165 103.294C153.405 97.9539 157.975 90.6639 166.055 89.5839C167.905 89.3339 169.785 89.3839 171.645 89.3939C175.365 90.0539 177.775 94.4039 178.435 97.7739C178.845 99.8539 179.445 101.704 180.215 103.684C181.015 105.734 181.235 107.764 181.285 109.944C181.375 114.364 180.725 118.764 179.485 123.004C178.265 127.164 176.315 131.064 175.005 135.204C173.735 139.224 172.965 143.484 173.655 147.694C173.945 149.434 174.425 151.124 174.675 152.874C174.935 154.734 175.065 156.614 175.065 158.494C175.065 162.184 174.605 165.964 173.195 169.404C172.525 171.024 171.695 172.524 170.195 173.504C168.645 174.514 166.995 175.314 165.485 176.404C162.335 178.694 159.125 181.014 155.445 182.404C152.145 183.654 148.595 183.534 145.135 183.164C139.035 182.504 133.025 180.064 130.105 174.344C129.235 172.634 128.785 170.754 128.185 168.944C127.535 166.994 126.825 165.044 126.405 163.024C125.955 160.874 126.035 158.654 126.035 156.464L126.045 156.444Z" fill="#D9E0C0" fill-opacity="0.2"/>
<path d="M159.165 166.054C160.965 164.334 162.655 161.974 163.425 159.594C164.275 156.964 163.865 154.104 163.805 151.394C163.645 145.034 164.675 138.784 166.715 132.764C167.905 129.244 168.305 125.534 169.215 121.934C170.005 118.834 170.955 115.664 170.505 112.434C169.755 107.114 165.655 102.644 160.135 102.484C157.825 102.574 156.585 104.424 155.475 106.214C153.905 108.754 151.975 111.094 150.275 113.544C146.675 118.744 143.425 124.224 140.915 130.034C138.465 135.714 136.555 141.834 135.775 147.984C135.425 150.764 135.355 153.614 135.215 156.414C135.095 158.894 135.165 161.334 136.285 163.604C140.485 172.094 152.905 172.054 159.165 166.044V166.054ZM137.755 151.254C137.945 145.534 139.615 139.704 141.585 134.364C143.735 128.534 146.745 123.054 150.105 117.834C151.895 115.044 153.845 112.354 155.795 109.674C156.505 108.704 157.155 107.734 157.795 106.724C158.335 105.874 159.005 104.774 160.125 104.724C164.645 104.854 167.925 108.804 168.335 113.154C168.595 115.864 167.765 118.544 167.095 121.134C166.385 123.894 166.005 126.724 165.325 129.484C164.635 132.304 163.535 134.994 162.895 137.824C162.285 140.524 161.895 143.284 161.695 146.054C161.505 148.694 161.555 151.314 161.655 153.964C161.755 156.574 161.565 158.784 160.205 161.064C157.855 164.994 154.105 167.564 149.505 167.994C145.755 168.354 141.735 167.284 139.325 164.224C136.405 160.514 137.615 155.584 137.755 151.234V151.254Z" fill="#D9E0C0" fill-opacity="0.2"/>
</svg>
