<svg width="195" height="262" viewBox="0 0 195 262" fill="none" xmlns="http://www.w3.org/2000/svg">
<path d="M1.29826 222.557C1.81445 221.391 0.0747752 220.387 -0.44141 221.568C-1.16266 223.208 -1.32511 224.841 -0.745288 226.553C-0.589726 227.019 -0.250555 227.246 0.223208 227.295C2.87486 227.585 5.48433 225.23 7.42886 223.738C10.5684 221.334 14.0473 219.255 17.498 217.332C25.5307 212.849 34.2636 209.533 43.4489 208.521C47.5006 208.076 51.6017 208.302 55.611 207.475C57.4636 207.093 59.2313 206.344 61.0981 206.033C63.0851 205.7 65.1215 205.644 67.1226 205.34C71.535 204.675 75.7142 203.268 79.9427 201.882C84.1499 200.503 88.1309 198.898 91.9422 196.614C95.8313 194.28 99.6425 191.813 103.228 189.034C106.961 186.135 110.207 182.705 113.572 179.396C116.931 176.094 120.248 172.707 122.949 168.832C125.706 164.872 128.62 161.039 131.441 157.129C134.171 153.353 136.681 149.4 139.078 145.405C140.259 143.432 141.333 141.41 142.415 139.381C143.54 137.252 145.194 135.612 146.736 133.802C148.15 132.147 149.267 130.28 150.427 128.442C151.643 126.532 152.845 124.609 153.991 122.658C156.183 118.896 158.014 114.971 159.676 110.948C161.217 107.229 162.554 103.403 163.247 99.4292C163.6 97.4069 163.819 95.3351 163.812 93.2774C163.798 91.0854 163.459 88.9213 163.204 86.7434C162.787 83.1018 162.865 79.6301 161.493 76.1794C159.923 72.2055 158.255 68.2031 156.395 64.3494C155.419 62.327 154.33 60.3471 153.015 58.5228C151.707 56.7055 150.151 55.1641 148.61 53.5519C146.962 51.8337 145.364 50.0801 143.49 48.6022C141.701 47.1951 139.778 45.9789 137.826 44.8193C134.291 42.7262 130.79 40.6262 126.965 39.106C123.387 37.6776 119.654 36.6876 115.849 36.0654C108.163 34.7997 100.314 34.9691 92.5999 35.9378C88.6048 36.4399 84.5671 37.0127 80.7275 38.2925C76.7112 39.6219 72.9281 41.5382 69.2087 43.504C65.3762 45.5263 61.4659 47.3011 57.5839 49.2032C53.914 51.0064 51.0926 53.7429 48.3702 56.7481C45.1953 60.2483 42.2678 63.9819 39.4535 67.772C36.5261 71.7177 33.4151 75.5075 30.4028 79.3966C27.5037 83.1442 25.0357 87.1961 22.4053 91.1276C19.7254 95.1369 16.8898 99.0614 14.0543 102.958C11.1481 106.953 8.21366 110.948 4.79126 114.526C1.52443 117.948 -1.98278 121.144 -5.34155 124.489C-12.0873 131.192 -19.8231 136.75 -27.8558 141.813C-35.6198 146.706 -43.5467 151.267 -52.4916 153.636C-55.6665 154.477 -59.421 154.399 -61.5848 157.256C-62.3555 158.281 -60.6162 159.257 -59.8455 158.246C-58.7424 156.79 -56.5289 156.471 -54.8531 156.153C-53.0005 155.8 -51.2327 155.375 -49.4296 154.802C-45.4061 153.523 -41.4819 151.918 -37.7342 149.98C-33.6542 147.866 -29.744 145.384 -25.8691 142.923C-22.0507 140.491 -18.3028 137.945 -14.6965 135.202C-11.0479 132.43 -7.54082 129.46 -4.27398 126.25C-0.950576 122.983 2.46474 119.808 5.71036 116.463C8.88527 113.19 11.6503 109.576 14.3514 105.913C17.1728 102.088 19.9659 98.2198 22.66 94.3095C25.2833 90.484 27.6661 86.5033 30.3743 82.7344C33.1673 78.8524 36.3776 75.3027 39.2131 71.449C41.9991 67.6589 44.8063 63.89 47.8822 60.3191C50.5834 57.1654 53.4047 53.849 57.0534 51.756C58.807 50.7519 60.681 50.0235 62.5053 49.175C64.464 48.2628 66.3875 47.2586 68.2966 46.2545C71.9948 44.2958 75.6786 42.2808 79.6101 40.81C83.4567 39.3675 87.452 38.6533 91.5037 38.0947C95.2655 37.5715 99.0628 37.2531 102.867 37.1824C110.433 37.041 118.056 37.946 125.19 40.5693C129.037 41.9836 132.502 44.0342 136.023 46.0989C138.032 47.2727 140.047 48.4678 141.885 49.8961C143.766 51.3528 145.385 53.0994 147.019 54.8177C148.596 56.4652 150.222 58.021 151.523 59.9019C152.76 61.6908 153.8 63.6071 154.74 65.5658C156.565 69.3842 158.297 73.351 159.775 77.3179C161.048 80.712 160.878 84.304 161.316 87.8537C161.854 92.167 161.903 96.2896 160.977 100.553C160.128 104.471 158.7 108.219 157.109 111.888C155.377 115.884 153.439 119.73 151.184 123.456C150.059 125.316 148.886 127.14 147.726 128.979C146.467 130.959 145.067 132.67 143.519 134.431C140.619 137.726 138.915 141.877 136.631 145.603C131.788 153.53 126.209 160.933 120.792 168.457C117.999 172.339 114.534 175.69 111.126 179.028C107.873 182.21 104.755 185.442 101.106 188.185C97.5071 190.893 93.6815 193.291 89.8066 195.582C86.0306 197.816 81.8869 199.188 77.7221 200.524C73.4724 201.889 69.3218 203.14 64.8741 203.657C63.1275 203.862 61.3386 203.883 59.6345 204.314C57.8102 204.781 56.0566 205.403 54.197 205.721C50.1311 206.421 45.9447 206.181 41.8506 206.726C37.4594 207.312 33.1747 208.359 29.0027 209.872C24.9652 211.336 21.0478 213.118 17.2789 215.175C13.7716 217.084 10.1724 219.17 6.98336 221.582C5.88028 222.416 4.79815 223.286 3.63142 224.043C2.83947 224.552 1.94143 225.125 0.979774 225.28C0.803 224.368 0.887957 223.477 1.28393 222.558L1.29826 222.557Z" fill="#D9E0C0" fill-opacity="0.2"/>
<path d="M-54.3718 186.029C-53.3889 184.664 -51.3032 184.29 -49.8183 183.724C-48.0435 183.053 -46.5018 181.949 -44.9321 180.903C-41.3753 178.534 -37.769 176.243 -34.4668 173.521C-27.8624 168.076 -22.1986 161.563 -15.9477 155.737C-12.9213 152.923 -9.89498 150.066 -7.37768 146.771C-6.13317 145.144 -5.09351 143.384 -3.78537 141.807C-2.35701 140.095 -0.801609 138.512 0.619677 136.794C1.99147 135.139 3.13015 133.336 4.40294 131.61C5.64038 129.934 6.93434 128.301 8.13642 126.59C10.6325 123.033 12.3578 119.003 14.9812 115.517C17.6752 111.932 21.2531 108.877 24.4775 105.766C27.6665 102.69 30.9407 99.6844 34.4479 96.9832C37.4814 94.6568 41.1228 93.2357 44.036 90.7609C45.7189 89.3325 47.2038 87.6355 48.7594 86.0799C50.3575 84.4818 51.9699 82.8977 53.5538 81.2855C56.6863 78.1106 59.6704 74.7871 62.8382 71.6334C64.3373 70.1344 65.8716 68.6283 67.5121 67.2848C69.1243 65.9696 71.0335 65.0786 72.9073 64.1947C76.7045 62.4199 80.2188 60.1501 84.016 58.3894C85.9039 57.5055 87.7565 56.6147 89.6162 55.6742C91.5395 54.6984 93.463 54.4861 95.5702 54.2174C99.5441 53.7083 103.362 52.9165 107.393 52.9731C111.367 53.0297 115.454 53.7367 119.35 54.4791C121.379 54.868 123.296 55.4407 125.163 56.3176C126.867 57.1166 128.528 58.0147 130.268 58.7642C134.044 60.3906 137.883 62.1372 141.051 64.8242C144.07 67.391 145.895 70.8556 147.642 74.3557C148.497 76.074 149.232 77.842 149.664 79.7159C150.116 81.7241 150.123 83.824 150.173 85.8675C150.279 90.0041 150.159 94.1972 149.303 98.263C148.469 102.209 147.097 106.027 145.64 109.775C144.099 113.735 141.44 117.058 139.821 120.954C139.036 122.842 138.456 124.808 137.636 126.689C136.759 128.711 135.62 130.628 134.574 132.565C132.495 136.44 130.388 140.301 128.161 144.098C127.001 146.064 125.905 148.164 124.484 149.953C123.147 151.643 121.521 153.071 120.135 154.726C118.798 156.317 117.858 158.134 116.734 159.866C115.595 161.627 114.351 163.338 112.944 164.901C110.137 168.019 106.403 170.027 103.391 172.912C100.372 175.804 97.6066 178.88 94.0428 181.143C92.2255 182.296 90.309 183.25 88.5625 184.516C86.8442 185.768 85.2182 187.139 83.4929 188.37C80.226 190.703 76.8105 191.573 72.8295 191.623C68.8272 191.679 64.9808 190.986 61.1129 190.031C57.3723 189.105 53.66 188.136 49.8345 187.648C46.094 187.175 42.3108 186.97 38.5419 187.189C34.865 187.401 31.202 187.981 27.6665 188.999C23.7845 190.124 20.0087 190.307 15.9782 190.35C14.1397 190.364 12.3083 190.385 10.491 190.661C8.52523 190.958 6.60206 191.509 4.66459 191.948C0.768425 192.832 -3.27654 192.903 -7.05956 194.31C-10.8567 195.717 -13.1902 198.489 -15.955 201.296C-16.8671 202.208 -15.4458 203.629 -14.5407 202.71C-13.07 201.225 -11.7262 199.57 -10.107 198.234C-8.43112 196.855 -6.37362 196.084 -4.29472 195.547C-2.37139 195.052 -0.391227 194.769 1.57453 194.514C3.63928 194.246 5.626 193.772 7.64126 193.284C9.65652 192.796 11.6505 192.443 13.7294 192.386C15.674 192.337 17.6186 192.358 19.5703 192.287C21.536 192.216 23.516 192.075 25.4393 191.679C27.299 191.29 29.0948 190.64 30.9545 190.223C38.6266 188.518 46.8221 188.78 54.4872 190.463C62.0179 192.125 69.3858 194.571 77.2064 193.256C81.2299 192.584 84.2775 190.329 87.417 187.882C89.1494 186.531 90.8961 185.209 92.8336 184.148C94.7075 183.123 96.475 181.992 98.1367 180.655C101.404 178.025 104.048 174.716 107.379 172.163C109.076 170.862 110.858 169.645 112.463 168.224C113.99 166.867 115.313 165.304 116.543 163.663C117.858 161.91 118.997 160.064 120.128 158.183C121.281 156.253 122.872 154.719 124.392 153.099C127.439 149.854 129.54 145.816 131.725 141.962C133.973 137.988 136.13 133.965 138.272 129.928C140.238 126.236 141.207 122.142 143.321 118.515C144.431 116.613 145.654 114.781 146.581 112.78C147.408 110.991 148.073 109.124 148.752 107.272C150.13 103.475 151.311 99.5926 151.82 95.5762C152.351 91.3831 152.322 87.1404 152.103 82.9331C151.905 79.0864 150.668 75.6711 148.879 72.284C146.991 68.699 145.068 65.4039 141.836 62.8513C138.598 60.2916 134.878 58.5661 131.116 56.9398C127.432 55.3347 124.116 53.3618 120.121 52.5769C116.274 51.8274 112.215 51.1346 108.298 50.9931C104.282 50.8517 100.336 51.375 96.3974 52.0891C94.4104 52.4498 92.3455 52.4358 90.4292 53.1499C88.6261 53.8217 87 54.8963 85.2464 55.6741C83.2311 56.5721 81.2369 57.4915 79.2853 58.5381C77.3549 59.5775 75.5095 60.7583 73.5225 61.7128C71.6982 62.5897 69.8243 63.3745 68.099 64.4493C66.3453 65.5383 64.8249 66.9738 63.3259 68.388C60.0237 71.5205 56.9692 74.8861 53.8155 78.1671C50.6336 81.4763 47.3243 84.6583 44.107 87.9322C41.2149 90.8667 37.4033 92.3024 34.1365 94.7349C30.6081 97.3724 27.313 100.3 24.1169 103.34C20.843 106.459 17.3218 109.556 14.4297 113.027C11.5942 116.414 9.81212 120.374 7.44332 124.058C6.27659 125.876 4.96128 127.587 3.66021 129.312C2.25306 131.186 1.00152 133.187 -0.462196 135.005C-1.8552 136.737 -3.41766 138.328 -4.86016 140.025C-6.26731 141.672 -7.37754 143.49 -8.67154 145.222C-11.1747 148.588 -14.279 151.466 -17.3407 154.316C-20.5086 157.271 -23.5563 160.319 -26.5969 163.402C-29.7365 166.584 -32.9323 169.737 -36.4113 172.552C-39.8832 175.359 -43.723 177.784 -47.4848 180.203C-49.0828 181.235 -50.6315 181.865 -52.3922 182.536C-53.8559 183.095 -55.171 183.745 -56.1044 185.046C-56.8539 186.093 -55.1143 187.069 -54.3647 186.036L-54.3718 186.029Z" fill="#D9E0C0" fill-opacity="0.2"/>
<path d="M-39.4026 205.291C-36.5813 202.597 -33.2083 200.581 -30.3728 197.915C-27.3676 195.094 -24.709 191.926 -22.0715 188.766C-19.4198 185.591 -16.5982 182.585 -13.9041 179.453C-11.3091 176.433 -8.94743 173.209 -6.72712 169.914C-2.15922 163.154 2.0975 156.182 5.73911 148.878C7.52102 145.3 9.15459 141.658 10.6607 137.96C11.382 136.192 12.2515 134.516 13.3617 132.954C14.4294 131.448 15.6739 130.09 16.7699 128.612C17.9013 127.085 18.7996 125.38 20.0441 123.924C21.3381 122.403 22.8018 120.968 24.2514 119.589C27.2 116.782 30.5302 114.428 33.9597 112.243C37.3043 110.1 40.741 108.12 44.0715 105.963C47.3666 103.828 50.4495 101.41 53.5679 99.0124C59.5359 94.4304 66.0907 90.803 72.9991 87.8261C76.2094 86.4402 79.6035 85.3936 83.1037 85.1461C85.0058 85.0118 86.9151 85.0965 88.8172 84.9763C90.684 84.8632 92.5365 84.6511 94.382 84.4037C98.2287 83.8804 102.033 83.1309 105.858 82.5299C109.436 81.9642 113.043 82.1903 116.606 82.7985C120.029 83.3783 123.395 84.2552 126.789 84.9623C130.48 85.7401 134.341 86.6452 137.409 88.9504C143.314 93.3698 142.571 101.381 140.238 107.505C139.142 110.383 137.721 113.119 136.391 115.891C134.687 119.448 132.976 123.054 130.607 126.229C129.462 127.756 128.005 129.001 126.852 130.521C125.862 131.836 125.134 133.314 124.222 134.693C122.256 137.677 119.138 139.749 116.578 142.167C110.575 147.845 103.914 152.852 96.7012 156.925C93.2011 158.897 89.5949 160.679 86.222 162.864C82.9623 164.978 79.4479 166.57 75.7638 167.807C72.1081 169.044 68.3535 169.971 64.5776 170.748C60.9784 171.491 57.3793 172.375 53.7447 172.94C49.7991 173.548 45.7966 173.195 41.8297 173.174C37.7497 173.153 33.7759 172.997 29.7242 172.509C25.9765 172.057 22.4198 172.064 18.6934 172.707C15.0093 173.351 11.3535 174.319 7.76142 175.323C3.98548 176.384 0.725614 177.919 -2.54829 180.061C-5.19287 181.787 -8.14136 182.967 -10.8637 184.544C-8.66462 182.486 -6.6916 180.202 -4.37229 178.265C-3.72176 177.727 -3.08567 177.176 -2.44221 176.632C-2.08865 176.886 -1.61478 176.936 -1.22587 176.533C-0.0803654 175.345 0.952126 174.072 1.96329 172.778C2.20371 172.566 2.43685 172.361 2.6702 172.142C6.91991 168.217 11.6294 165.233 16.9752 163.013C18.8349 162.242 20.7297 161.563 22.6389 160.941C22.9925 161.181 23.4734 161.238 23.8623 160.849C24.0038 160.708 24.1382 160.573 24.2725 160.439C26.8959 159.626 29.5475 158.897 32.1921 158.162C37.262 156.755 42.3884 155.348 47.2251 153.269C48.5544 152.703 49.8415 152.038 51.1921 151.508C52.6841 150.921 54.2466 150.546 55.8023 150.179C58.8287 149.457 61.8552 148.722 64.8887 148.05C67.7384 147.421 70.6231 146.94 73.5152 146.495C76.4144 146.042 79.4408 145.774 82.2622 144.904C84.7653 144.126 87.127 142.952 89.5595 142.005C90.7262 141.545 91.9498 141.241 93.0741 140.682C94.2267 140.109 95.2379 139.296 96.3409 138.617C98.54 137.253 101.043 136.461 103.101 134.856C105.512 132.968 107.577 130.535 109.719 128.364C111.926 126.116 114.16 123.98 115.913 121.35C117.384 119.144 118.848 116.704 119.803 114.222C121.174 110.616 121.45 105.079 118.459 102.159C115.136 98.9204 109.91 97.2023 105.42 96.5589C103.094 96.2265 100.909 96.3326 98.6246 96.8912C95.9023 97.5488 93.3499 98.1213 90.5285 98.1567C85.3879 98.2203 80.3602 97.0537 75.2407 96.884C72.9002 96.8062 70.5242 96.9619 68.2615 97.5559C65.6876 98.2347 63.4177 99.6136 61.1196 100.894C55.8234 103.856 50.5911 107.024 45.9949 111.012C43.7887 112.921 41.7735 115.021 40.0057 117.341C38.1248 119.801 36.6325 122.524 34.7163 124.963C32.9132 127.276 30.6152 129.121 28.7768 131.384C26.9171 133.668 25.517 136.355 23.8836 138.808C20.4329 144.027 16.8973 149.175 13.6446 154.52C12.1244 157.016 10.5687 159.505 8.76555 161.804C6.99071 164.088 4.81289 165.997 3.0027 168.245C2.1471 169.313 1.31266 170.402 0.471199 171.484C0.386349 171.569 0.301414 171.639 0.216564 171.724C-2.0179 173.803 -4.43609 175.627 -6.69175 177.671C-8.97572 179.729 -10.9699 182.076 -13.2892 184.085C-15.5378 186.022 -18.055 187.634 -20.452 189.367C-22.736 191.014 -24.9421 192.739 -26.9291 194.74C-27.8412 195.653 -26.427 197.067 -25.5148 196.155C-22.941 193.567 -19.9428 191.516 -16.9942 189.416C-18.3377 190.759 -19.6389 192.16 -20.9753 193.496C-23.3936 195.914 -25.8402 198.177 -28.407 200.419C-29.4747 201.345 -30.5001 202.314 -31.3487 203.445C-31.7164 203.94 -32.0629 204.456 -32.2821 205.043C-32.5932 205.863 -32.2679 206.231 -31.7871 206.924C-31.0588 207.978 -29.3121 206.995 -30.0475 205.934L-30.3163 205.538C-29.7789 204.421 -28.7959 203.494 -27.919 202.674C-26.7735 201.599 -25.5361 200.631 -24.3553 199.605C-21.442 197.088 -18.7973 194.175 -16.0891 191.438C-14.6042 189.939 -13.176 188.454 -11.4082 187.267C-9.90916 186.262 -8.30406 185.435 -6.68478 184.622C-4.93116 183.745 -3.1633 182.897 -1.51575 181.815C0.110594 180.754 1.69459 179.693 3.48357 178.923C7.09689 177.36 11.0497 176.518 14.8681 175.585C18.4602 174.708 22.1722 173.966 25.8845 174.143C29.9574 174.341 33.9598 175.09 38.0468 175.147C40.1187 175.182 42.1904 175.175 44.2622 175.196C46.3199 175.217 48.4061 175.38 50.4638 175.288C54.0912 175.125 57.641 174.248 61.1836 173.492C64.9524 172.679 68.7212 171.979 72.4405 170.946C76.1741 169.9 79.8721 168.62 83.344 166.874C86.8937 165.092 90.1747 162.787 93.682 160.891C100.887 156.995 107.944 152.569 114.181 147.223C115.673 145.943 117.031 144.529 118.48 143.192C119.859 141.927 121.309 140.746 122.68 139.473C123.911 138.328 125.085 137.097 126.018 135.697C126.959 134.276 127.68 132.706 128.761 131.384C130.006 129.871 131.427 128.562 132.587 126.978C133.775 125.352 134.793 123.613 135.734 121.838C137.381 118.72 138.902 115.502 140.394 112.313C142.946 106.861 145.046 100.886 143.533 94.8336C142.628 91.2132 140.394 88.328 137.197 86.4188C133.938 84.4743 130.225 83.6753 126.57 82.8904C119.81 81.4338 113.021 79.5105 106.056 80.5216C102.153 81.0873 98.2781 81.8935 94.3678 82.438C92.395 82.7137 90.4153 82.9256 88.4284 83.0317C86.5333 83.1307 84.6382 83.0459 82.7502 83.2086C75.7428 83.8237 69.6334 87.2461 63.4604 90.322C56.2338 93.9141 50.4141 99.4792 43.7178 103.885C36.9932 108.304 29.7597 112.002 23.7422 117.425C20.8643 120.02 18.3046 122.835 16.1833 126.073C14.1468 129.185 11.4597 131.787 9.80504 135.153C7.98778 138.851 6.59475 142.747 4.79163 146.459C2.98144 150.179 1.02283 153.834 -1.0702 157.398C-5.23506 164.505 -9.73944 171.625 -15.0993 177.89C-17.8358 181.093 -20.7209 184.148 -23.422 187.387C-26.0595 190.548 -28.7182 193.715 -31.7234 196.537C-34.3184 198.976 -37.352 200.864 -39.9966 203.226C-40.0673 203.268 -40.1378 203.296 -40.2014 203.36L-40.7532 203.912C-41.6653 204.824 -40.2723 206.217 -39.339 205.326L-39.4026 205.291ZM19.2238 149.323C22.5684 144.196 25.9696 139.098 29.3071 133.979C30.891 131.546 33.2244 129.75 35.1124 127.58C36.9933 125.416 38.5277 122.99 40.1045 120.608C43.3926 115.608 47.911 111.613 52.8183 108.247C55.2932 106.55 57.867 105.009 60.4692 103.524C62.8451 102.166 65.2633 100.554 67.8867 99.7126C72.3627 98.263 77.1639 98.8782 81.746 99.458C86.9008 100.116 92.1053 100.582 97.2035 99.2881C99.6431 98.6729 101.927 98.1145 104.465 98.4044C106.94 98.6872 109.415 99.38 111.713 100.335C113.658 101.148 115.97 102.216 117.356 103.856C118.728 105.482 118.848 107.964 118.692 109.987C118.494 112.49 117.504 114.541 116.331 116.718C114.888 119.391 113.262 121.937 111.119 124.094C108.899 126.328 106.707 128.591 104.48 130.804C103.454 131.829 102.443 132.911 101.241 133.731C100.209 134.424 99.0772 134.934 97.9599 135.471C96.8286 136.008 95.7327 136.595 94.6791 137.295C93.6184 138.002 92.6002 138.766 91.3981 139.233C88.9445 140.173 86.526 141.149 84.0794 142.125C78.8681 144.197 73.0698 144.437 67.5826 145.455C64.7118 145.993 61.8977 146.728 59.0551 147.378C56.1772 148.036 53.2072 148.559 50.4495 149.663C47.9252 150.674 45.5068 151.876 42.9471 152.795C40.4864 153.672 37.9832 154.435 35.4659 155.157C33.4224 155.744 31.3717 156.309 29.307 156.889C30.8909 155.305 33.0759 154.365 35.1265 153.516C37.7569 152.441 40.3661 151.43 42.8975 150.143C45.8249 148.659 48.6181 146.912 51.5526 145.434C54.5083 143.949 57.57 142.655 60.4974 141.114C63.3754 139.593 65.9988 137.705 68.5656 135.718C71.1111 133.753 73.4587 131.73 76.5205 130.648C79.2357 129.687 81.8947 128.881 84.4544 127.523C87.1697 126.08 89.8355 124.772 92.6993 123.662C94.6863 122.891 96.6871 121.541 96.4396 119.13C96.2346 117.114 94.7004 115.368 93.265 114.06C90.0901 111.167 86.1725 110.319 81.9723 110.885C77.6377 111.472 73.3385 113.268 69.7464 115.743C67.3069 117.419 65.0089 119.292 62.6118 121.025C59.8965 122.976 57.1742 124.907 54.5155 126.929C42.6503 135.98 33.5922 148.107 23.1765 158.692C18.1277 160.29 13.1991 162.193 8.68065 164.957C9.15441 164.441 9.60721 163.918 10.0385 163.359C13.5104 158.968 16.1479 154.011 19.2026 149.33L19.2238 149.323ZM31.2587 153.071C33.2386 150.907 35.2042 148.743 37.1699 146.566C41.4833 141.8 45.7969 136.92 50.6123 132.656C55.2933 128.513 60.4906 125.027 65.5322 121.357C69.3718 118.564 72.9002 115.658 77.4398 114.046C81.2299 112.702 85.9534 111.811 89.6657 113.84C91.2779 114.717 92.8404 116.125 93.8092 117.673C94.2688 118.401 94.7357 119.363 94.3043 120.219C93.7528 121.293 92.2113 121.703 91.1718 122.064C88.4848 123.012 85.9958 124.412 83.4856 125.748C80.9612 127.085 78.3235 127.827 75.6648 128.817C72.992 129.807 70.892 131.384 68.6646 133.116C66.1261 135.089 63.5875 137.076 60.7873 138.66C57.768 140.378 54.558 141.722 51.4396 143.242C48.3425 144.755 45.4148 146.58 42.353 148.156C39.6872 149.535 36.9369 150.603 34.165 151.748C33.2034 152.144 32.2131 152.569 31.2656 153.064L31.2587 153.071Z" fill="#D9E0C0" fill-opacity="0.2"/>
</svg>