<svg width="122" height="119" viewBox="0 0 122 119" fill="none" xmlns="http://www.w3.org/2000/svg">
<path d="M44.0462 65.3168C49.0862 69.4268 55.9462 69.7768 61.9562 67.9368C68.5162 65.9268 74.0163 61.1468 73.8163 53.8068C73.6963 49.3668 71.5861 45.5868 68.1261 42.8468C65.5761 40.8268 62.7963 40.3768 59.8563 40.2968C59.9463 39.6768 59.6063 38.9968 58.8063 39.0368C55.5763 39.1968 52.2662 39.8368 49.2462 41.0068C47.7962 41.5668 46.3861 42.2468 45.1761 43.2268C43.8861 44.2668 43.0962 45.6668 42.4662 47.1768C41.6962 49.0168 41.1661 50.9468 40.6661 52.8768C40.2561 54.4668 39.8862 56.0668 39.9962 57.7268C40.2062 60.7368 41.7162 63.4268 44.0362 65.3168H44.0462ZM43.6861 50.4168C44.1961 48.7768 44.7661 46.9268 45.9061 45.6068C46.8461 44.5268 48.2362 43.8268 49.5462 43.2868C51.3562 42.5468 53.2962 42.0268 55.2562 41.6968C55.3562 42.1468 55.6962 42.5468 56.2962 42.5368C59.3962 42.5168 62.6962 42.0968 65.4962 43.7368C68.3862 45.4268 70.6663 48.3568 71.3363 51.6468C71.9463 54.6468 71.4661 57.8768 69.6761 60.3968C68.0461 62.6868 65.4961 64.2368 62.9061 65.2168C57.7561 67.1668 51.9162 67.5368 47.0262 64.6468C44.8962 63.3968 43.1162 61.5068 42.4762 59.0768C41.7262 56.2068 42.8261 53.1268 43.6761 50.3968L43.6861 50.4168Z" fill="#D9E0C0" fill-opacity="0.2"/>
<path d="M14.8858 81.1268C17.0258 85.1768 20.2759 87.9368 23.9559 90.5368C27.9859 93.3768 31.806 96.3768 36.516 98.0168C40.726 99.4868 45.4958 99.0568 49.8858 99.0668C54.6658 99.0668 59.5458 98.8668 64.1258 97.3768C68.7458 95.8768 72.816 92.9068 76.766 90.1568C80.846 87.3168 84.796 84.2468 88.336 80.7368C91.426 77.6768 94.256 74.3068 96.306 70.4568C98.206 66.8868 99.576 63.0268 100.506 59.0968C102.406 51.0968 102.726 42.5568 101.026 34.4968C100.266 30.8968 99.096 27.1368 97.076 24.0268C94.866 20.6268 91.556 18.9568 87.566 18.5868C85.036 18.3468 82.4959 18.5368 79.9659 18.6868C77.4359 18.8368 74.8958 18.8068 72.3858 19.1268C67.2358 19.7768 62.3159 21.4168 57.3959 22.9968C54.9259 23.7868 52.4459 24.5568 49.9259 25.1868C42.1759 26.9968 34.536 29.5368 28.566 35.0168C25.386 37.9368 23.0359 41.5768 19.9559 44.6168C18.4059 46.1468 16.8359 47.7068 15.6559 49.5468C14.2759 51.6968 13.666 54.1468 13.266 56.6368C12.576 60.8668 11.4359 64.9268 11.6659 69.2568C11.8859 73.3668 12.9261 77.4768 14.8561 81.1268H14.8858ZM14.336 63.0868C14.766 60.9168 15.196 58.7668 15.576 56.5868C15.996 54.1568 16.6959 51.8868 18.1859 49.8868C19.4959 48.1168 21.1659 46.6468 22.7059 45.0868C24.1559 43.6168 25.3459 41.9868 26.6459 40.3868C31.3759 34.5768 37.5659 31.0468 44.6759 28.9068C46.6159 28.3268 48.576 27.8268 50.546 27.3668C55.326 26.1568 59.9459 24.4568 64.6759 23.0868C67.0259 22.4068 69.406 21.8268 71.826 21.4568C74.176 21.0968 76.5359 21.1268 78.9059 20.9968C83.0859 20.7768 88.1359 19.9268 91.9759 22.0868C95.0259 23.7968 96.5361 27.3168 97.6161 30.4868C100.076 37.6968 100.386 45.6568 99.3561 53.1568C98.3461 60.5468 95.966 68.1268 91.326 74.0768C85.546 81.4668 77.7859 87.0268 69.9359 92.0068C65.8659 94.5868 61.6858 96.0868 56.8758 96.5468C52.3158 96.9868 47.6761 96.8368 43.1061 96.7668C38.7861 96.6968 35.006 95.2968 31.336 93.0268C29.306 91.7668 27.4259 90.2268 25.4659 88.8468C23.6059 87.5368 21.7061 86.2268 20.1161 84.5868C14.8361 79.1568 12.896 70.4068 14.336 63.0868Z" fill="#D9E0C0" fill-opacity="0.2"/>
<path d="M13.1763 96.8571C14.8663 99.7571 15.8362 102.987 17.6562 105.827C19.1662 108.187 20.5962 110.597 22.1362 112.947C23.0862 114.407 24.2164 115.717 25.8064 116.497C27.8964 117.527 30.3164 117.767 32.5964 117.977C35.6064 118.257 38.6662 118.337 41.6662 117.977C48.0462 117.227 53.7164 113.587 59.5364 111.117C62.5564 109.827 65.4164 108.377 68.0264 106.357C70.5863 104.377 72.8662 102.087 75.1262 99.767C79.9162 94.857 84.5264 89.8371 89.0764 84.7171C97.7164 74.9971 106.456 65.3071 112.316 53.5771C115.226 47.7671 118.106 41.847 119.816 35.557C121.376 29.847 122.896 23.467 121.036 17.647C119.506 12.887 117.216 8.19704 113.196 5.06704C108.446 1.35704 102.176 0.377042 96.3064 0.127042C93.0364 -0.0129575 89.6963 -0.132955 86.4463 0.317045C83.0463 0.787045 79.7463 1.73705 76.4263 2.56704C73.0463 3.40704 69.6463 4.36705 66.2063 4.91705C64.9563 5.11705 63.7063 4.89705 62.4663 5.19705C61.5363 5.42705 60.6263 5.71705 59.7163 6.00705C57.9463 6.55705 56.1264 7.29704 54.2864 7.56704C54.0864 7.59704 53.9264 7.67705 53.8064 7.77705C47.5564 10.5871 41.0264 12.677 35.0264 16.037C29.2364 19.277 23.8764 23.197 18.5564 27.157C13.5564 30.877 8.84622 34.9771 5.13622 40.0271C1.44622 45.0471 0.326218 50.8471 0.136218 56.9671C-0.213782 68.397 -0.463567 80.727 7.10643 90.097C9.00643 92.447 11.6062 94.237 13.1462 96.877L13.1763 96.8571ZM2.36644 64.9471C2.33644 59.2071 2.02631 53.187 3.72631 47.627C5.48631 41.857 10.0463 37.197 14.4663 33.287C19.0463 29.237 24.1663 25.657 29.2463 22.257C34.6163 18.657 40.2063 15.7171 46.2163 13.3271C49.1363 12.1671 52.0663 11.017 54.9263 9.72705C56.6663 9.46705 58.3764 8.78705 60.0464 8.25705C60.9164 7.98705 61.7863 7.70705 62.6763 7.46705C63.8063 7.16705 64.9064 7.32705 66.0564 7.19705C69.2964 6.83705 72.5063 5.80705 75.6763 5.05705C78.8663 4.29705 82.0163 3.36705 85.2363 2.77705C88.4663 2.18705 91.7163 2.24705 94.9863 2.33705C98.1463 2.41705 101.296 2.65705 104.366 3.42705C109.576 4.72705 113.696 7.53705 116.336 12.2471C117.546 14.4071 118.526 16.787 119.146 19.177C119.896 22.047 119.706 25.1371 119.236 28.0271C118.256 34.1071 116.276 39.967 113.676 45.537C111.036 51.197 108.286 56.747 104.806 61.947C101.316 67.1571 97.3563 72.0371 93.2163 76.7471C88.9663 81.5771 84.7064 86.417 80.3564 91.147C78.1964 93.497 75.9263 95.737 73.6963 98.017C71.5663 100.207 69.4163 102.407 67.0163 104.317C64.5263 106.307 61.7364 107.747 58.8164 108.997C55.9164 110.247 53.0663 111.567 50.2163 112.927C47.3663 114.277 44.4364 115.437 41.2864 115.767C38.4064 116.067 35.4864 115.987 32.6064 115.717C30.5264 115.517 28.1664 115.337 26.3464 114.207C24.9064 113.307 24.0363 111.747 23.1863 110.327C21.6563 107.757 19.8663 105.327 18.4363 102.707C16.9463 99.987 16.1263 96.877 14.2363 94.377C12.5363 92.127 10.2363 90.417 8.51635 88.187C6.77635 85.917 5.36625 83.3671 4.41625 80.677C2.62625 75.6171 2.39621 70.237 2.37621 64.927L2.36644 64.9471Z" fill="#D9E0C0" fill-opacity="0.2"/>
</svg>
