<svg width="217" height="285" viewBox="0 0 217 285" fill="none" xmlns="http://www.w3.org/2000/svg">
<g opacity="0.2">
<path d="M218.581 22.8476C210.571 19.7672 202.375 17.9725 194.125 15.7492C185.526 13.4188 177.196 10.5795 168.383 9.07947C160.294 7.71337 152.07 5.81159 143.874 5.43658C135.784 5.08836 127.721 5.91868 119.632 5.97225C115.748 5.99904 115.748 12.0259 119.632 11.9992C127.507 11.9456 135.382 11.142 143.284 11.4367C151.347 11.7313 159.463 13.6331 167.419 14.9992C175.589 16.3921 183.33 18.9904 191.312 21.2136C199.16 23.4101 207.035 24.9637 214.696 27.803C229.589 33.2942 243.813 40.7676 257.769 48.3213C271.698 55.8483 285.171 64.2324 297.412 74.3308C309.038 83.8935 319.966 94.6348 328.19 107.331C332.583 114.108 335.449 120.966 336.333 129.028C337.136 136.207 336.895 143.52 336.842 150.725C336.735 166.583 335.047 182.119 327.734 196.449C324.038 203.682 320.074 210.753 315.895 217.691C311.984 224.173 308.475 231.057 303.895 237.084C299.475 242.897 293.635 247.236 287.341 250.799C280.457 254.683 273.814 258.915 266.956 262.906C253.027 270.996 236.661 273.835 221.179 277.371C213.25 279.192 205.295 278.63 197.232 278.469C188.794 278.281 180.356 278.63 171.946 278.308C155.74 277.692 139.454 274.237 123.811 270.004C108.837 265.96 94.6672 260.12 80.2562 254.442C67.2649 249.325 53.6841 244.424 42.6214 235.664C31.5855 226.959 23.4692 214.316 17.5227 201.726C11.0672 188.012 7.61195 173.44 6.64765 158.359C5.5762 141.457 6.13879 124.394 6.05843 107.465C6.03164 99.0277 5.17427 89.974 7.18324 81.7238C8.97792 74.4379 13.1565 68.3039 16.1298 61.5002C22.0495 48.1071 33.2733 36.6694 44.5771 27.5352C50.604 22.6869 57.3004 18.4547 64.4791 15.535C71.765 12.5617 79.5867 10.5795 87.0869 8.2491C90.5691 7.17765 94.2654 6.05266 97.9619 6.02588C101.471 6.02588 104.819 7.44552 108.248 8.08839C112.025 8.81162 113.659 2.99897 109.855 2.27574C106.587 1.63287 103.426 0.454278 100.105 0.106057C95.9799 -0.322524 91.7742 0.615012 87.8366 1.71325C83.9258 2.81149 80.1223 4.23117 76.2383 5.40977C72.1132 6.64193 67.9614 7.71339 63.9435 9.26699C49.2111 14.9725 36.8088 25.0709 26.2282 36.6426C21.246 42.1069 15.9425 47.7589 12.7014 54.4822C11.121 57.7501 9.86183 61.152 8.14751 64.3663C6.19211 68.0628 4.1563 71.5718 2.73663 75.5362C-0.236643 83.7596 0.00470832 92.224 0.00470832 100.822C0.00470832 110.09 0.0848186 119.358 0.0848186 128.6C0.0848186 145.422 -0.343513 162.538 3.35299 179.065C6.67449 193.985 12.9959 208.476 21.6211 221.093C30.0855 233.495 40.5589 243.004 54.0056 249.754C67.0237 256.29 81.0062 261.352 94.56 266.656C110.337 272.844 126.73 277.424 143.364 280.612C151.936 282.246 160.561 283.665 169.267 284.148C178.16 284.63 187.08 284.255 196 284.389C204.143 284.496 212.312 285.219 220.375 283.639C228.732 282.005 237.17 279.996 245.394 277.746C253.483 275.522 261.599 272.763 268.938 268.638C272.447 266.656 275.769 264.379 279.171 262.236C282.814 259.933 286.617 258.031 290.367 255.942C296.823 252.299 302.904 247.799 307.591 241.986C312.386 236.066 315.868 229.263 319.806 222.78C328.485 208.476 337.565 193.717 340.699 177.056C342.199 169.127 342.708 161.091 342.842 153.029C342.949 145.234 343.19 137.305 342.413 129.537C341.663 121.903 339.708 114.778 335.797 108.108C331.806 101.278 326.984 94.9294 321.708 89.0365C299.716 64.3395 270.974 47.7588 241.697 33.1603C234.143 29.3834 226.456 25.8209 218.581 22.794V22.8476Z" fill="#114635"/>
<path d="M109.372 22.5259C108.917 22.1509 108.274 21.9634 107.47 22.0438C96.5149 23.4366 85.3716 25.1778 75.1661 29.5171C64.4248 34.0708 55.3979 43.2317 47.4692 51.589C38.6833 60.8302 30.2723 71.518 26.2812 83.7861C22.2364 96.1882 23.067 109.313 22.4777 122.171C22.1563 129.055 21.808 135.993 22.4241 142.877C23.0402 149.814 24.7813 156.618 26.7634 163.261C28.8528 170.252 31.3437 177.136 33.8884 183.967C36.2188 190.235 37.8797 196.824 40.3976 203.012C42.7548 208.798 47.0942 214.182 50.8443 219.137C54.2193 223.584 58.1568 228.191 63.1123 230.923C68.5767 233.977 75.3269 235.048 81.3002 236.736C88.6129 238.825 95.9791 240.78 103.399 242.521C117.622 245.897 132.194 248.388 146.846 248.522C154.587 248.602 162.356 248.522 170.097 248.468C177.436 248.441 184.695 247.289 192.008 246.727C199.428 246.138 206.821 246.647 214.24 246.593C221.071 246.539 227.767 245.414 234.437 243.968C247.053 241.209 258.866 236.575 269.581 229.316C279.733 222.432 289.537 213.914 295.858 203.28C302.046 192.887 304.858 180.886 305.099 168.859C305.233 161.654 306.626 154.475 306.465 147.27C306.305 140.546 304.216 134.198 301.671 128.037C299.099 121.769 294.813 116.921 291.546 111.081C288.545 105.751 285.171 101.01 280.938 96.59C272.072 87.3755 261.465 79.5806 250.482 73.0984C238.214 65.8393 225.758 58.607 213.142 51.964C200.687 45.4014 187.4 39.187 173.579 36.1065C170.23 35.3565 166.829 34.7673 163.507 33.8833C160.266 33.0262 157.212 31.9011 153.864 31.4189C146.659 30.4279 139.614 29.4636 132.542 27.6957C125.605 25.9814 118.721 23.9724 111.81 22.1509C110.872 21.9098 110.042 22.0706 109.426 22.4992L109.372 22.5259ZM149.686 36.9905C156.088 37.6334 162.061 39.8567 168.356 41.1692C174.999 42.5621 181.4 44.4638 187.749 46.9014C200.392 51.7497 212.392 58.1516 224.044 64.9821C235.509 71.7055 247.536 77.652 258.384 85.42C267.786 92.1434 277.536 99.9114 283.858 109.742C285.358 112.099 286.536 114.644 288.09 116.974C289.938 119.76 292.054 122.358 293.742 125.224C296.822 130.501 299.233 137.144 300.144 143.198C301.162 149.895 299.769 156.672 299.314 163.368C298.885 169.556 299.019 175.609 297.76 181.717C295.376 193.369 289.751 203.735 281.26 212.039C263.474 229.423 239.366 240.352 214.294 240.566C207.303 240.62 200.311 240.137 193.293 240.62C186.624 241.075 180.008 242.12 173.311 242.388C165.811 242.682 158.257 242.414 150.757 242.495C143.953 242.548 137.203 242.227 130.426 241.423C116.417 239.762 102.676 236.334 89.0951 232.637C82.5057 230.843 75.7287 229.182 69.2464 227.039C64.1838 225.351 60.3532 221.28 57.0317 217.235C53.3352 212.735 49.1833 207.378 46.6118 202.128C45.2993 199.449 44.6298 196.476 43.7727 193.637C42.8084 190.395 41.5494 187.261 40.3976 184.074C35.71 171.377 30.4063 158.225 28.7188 144.698C27.1652 132.189 28.6116 119.09 28.9598 106.501C29.308 93.7774 31.9599 82.1521 39.1119 71.4912C45.9424 61.3392 54.4605 52.5265 63.6482 44.5442C67.6929 41.0352 71.6303 37.6869 76.5322 35.4369C81.6484 33.0797 87.22 31.6332 92.7112 30.4814C97.6131 29.4367 102.569 28.6599 107.524 28.0438C108.167 27.9635 108.676 27.7224 109.104 27.401C109.399 27.6421 109.774 27.8296 110.229 27.9368C123.274 31.3922 136.265 35.5708 149.766 36.9637L149.686 36.9905Z" fill="#114635"/>
<path d="M98.4976 45.2686C96.2475 46.6615 95.1493 48.8848 94.8279 51.3759C94.3189 51.6438 93.8101 51.8848 93.3012 52.1795C84.1403 57.8046 76.64 65.7869 70.3988 74.4388C64.104 83.1176 58.1307 92.9749 54.7021 103.181C50.9788 114.297 53.5236 126.083 54.7825 137.36C56.0683 148.985 60.113 159.11 64.8006 169.718C67.0774 174.834 68.9793 180.084 71.2562 185.2C73.4526 190.182 76.2384 194.682 79.2652 199.209C81.9706 203.281 84.7564 207.647 88.9618 210.272C93.0869 212.843 98.0425 214.558 102.462 216.594C107.337 218.87 112.293 220.344 117.73 219.808C123.168 219.272 128.311 217.451 133.668 216.594C139.829 215.602 146.311 215.683 152.526 215.361C159.035 215.04 165.571 214.772 172.08 214.611C184.83 214.29 197.553 214.638 210.277 214.531C215.956 214.477 221.018 213.888 226.482 212.281C231.518 210.781 237.036 210.459 241.858 208.37C252.063 203.977 259.59 197.361 264.278 187.236C268.805 177.432 271.725 167.95 270.251 157.021C268.859 146.789 264.358 137.172 258.465 128.761C252.197 119.815 244.376 111.538 236.447 104.038C228.009 96.0286 218.554 90.9392 207.866 86.5998C185.419 77.5193 162.919 68.7334 142.025 56.4117C137.713 53.867 133.373 51.4562 128.847 49.3937C129.222 47.6793 128.311 45.6436 126.061 45.6436C123.73 45.6436 121.427 45.6436 119.15 45.724C118.346 45.4829 117.543 45.2418 116.712 45.0543C111.194 43.6882 103.694 41.9739 98.4711 45.1883L98.4976 45.2686ZM162.838 74.3049C172.669 78.8586 182.741 82.9033 192.759 87.0016C202.348 90.8856 212.527 94.2607 221.366 99.7519C230.26 105.27 237.251 113.359 244.269 120.967C257.153 134.949 268.724 153.753 263.421 173.521C260.876 182.977 255.92 193.209 247.51 198.62C243.411 201.272 239.099 203.468 234.277 204.379C229.322 205.317 224.607 206.897 219.705 207.968C214.402 209.12 208.643 208.611 203.259 208.584C197.473 208.558 191.687 208.45 185.875 208.45C174.33 208.477 162.785 208.879 151.24 209.468C145.695 209.763 140.07 209.87 134.525 210.486C129.489 211.049 124.695 212.656 119.712 213.54C114.436 214.451 109.802 213.46 105.034 211.183C101.042 209.308 96.7565 207.701 92.8725 205.584C88.6939 203.281 86.1761 198.754 83.6314 194.897C80.926 190.798 78.4615 186.673 76.4793 182.173C74.39 177.432 72.5954 172.53 70.5061 167.789C68.3899 162.994 66.1666 158.226 64.3987 153.298C60.8629 143.387 59.8182 132.458 59.0146 122.011C58.6129 116.815 58.6128 111.538 60.0057 106.502C61.3986 101.413 64.0238 96.5108 66.5149 91.9035C75.5955 75.2157 90.0332 55.1528 110.284 52.3134C112.801 51.9652 115.373 51.8312 117.918 51.7777C123.677 53.5188 129.114 56.0367 134.418 59.0367C143.793 64.3672 153.008 69.778 162.785 74.3049H162.838Z" fill="#114635"/>
<path d="M112.881 83.7859C108.435 84.1877 104.417 85.3394 100.64 88.6877C95.7111 93.0539 93.2466 98.9736 92.4698 105.402C91.693 111.617 91.7467 117.938 92.6039 124.126C93.5682 131.037 96.0059 136.528 99.4882 142.501C103.426 149.251 106.693 156.243 110.256 163.153C113.31 169.1 116.658 174.698 122.658 178.073C128.98 181.609 136.453 183.458 143.417 185.199C151.668 187.261 159.757 188.038 168.248 187.984C184.775 187.877 201.142 188.279 217.589 186.19C229.401 184.69 247.027 183.002 249.92 168.752C251.071 163.1 250.67 156.725 247.67 151.689C246.009 148.903 243.786 146.519 241.723 144.028C239.42 141.242 237.303 138.269 234.973 135.51C225.089 123.751 212.553 115.795 199.99 107.197C196.561 104.84 193.186 103.179 189.249 101.84C185.097 100.447 181.883 98.2772 178.159 96.0808C174.543 93.9379 170.471 92.6788 166.507 91.3395C162.302 89.8931 158.257 88.2056 154.185 86.4645C150.569 84.9377 147.06 83.6787 143.123 83.3305C138.971 82.9555 134.899 81.9912 130.748 81.7769C124.64 81.4287 118.319 81.2947 112.881 83.8394V83.7859ZM131.283 87.8038C134.498 88.0449 137.578 88.9556 140.792 89.1699C144.114 89.4109 147.034 90.027 150.141 91.2592C156.409 93.7235 162.57 96.2414 168.918 98.545C175.025 100.742 179.927 105.001 186.061 107.143C189.034 108.188 191.847 109.126 194.526 110.813C197.472 112.688 200.258 114.778 203.178 116.706C209.017 120.59 214.937 124.367 220.214 129.001C224.955 133.18 229.241 137.814 233.125 142.796C236.553 147.162 241.562 151.769 243.544 156.993C245.152 161.252 244.937 168.109 242.178 171.886C238.589 176.788 230.687 178.047 225.142 179.065C211.026 181.636 196.856 181.984 182.552 181.957C175.239 181.957 167.846 182.306 160.534 181.957C153.168 181.582 145.935 179.815 138.864 177.752C133.158 176.091 126.301 174.511 121.908 170.198C117.596 165.966 115.105 159.511 112.533 154.153C109.265 147.403 105.274 141.108 101.792 134.492C98.872 128.974 98.1487 122.331 97.988 116.197C97.8273 109.929 97.8807 102.804 101.256 97.3129C102.997 94.4736 105.649 91.7681 108.756 90.536C108.783 90.536 108.837 90.536 108.863 90.5092C109.935 91.4735 111.676 91.8485 113.069 90.6431C113.524 90.2414 114.06 89.9199 114.569 89.6253C115.881 89.6253 117.221 89.6253 118.506 89.6253C119.98 89.6253 120.89 88.7413 121.239 87.643C124.64 87.2948 128.23 87.5895 131.283 87.8305V87.8038Z" fill="#114635"/>
<path d="M121.4 111.67C115.775 118.152 114.007 126.081 118.935 133.554C123.73 140.786 132.034 145.26 138.945 150.135C147.275 156.028 155.606 160.608 165.249 163.983C174.356 167.171 183.598 171.215 193.187 172.742C199.643 173.76 207.196 173.439 211.482 167.76C216.062 161.706 215.232 153.135 211.991 146.706C208.402 139.634 202.053 134.197 195.705 129.67C187.24 123.643 177.811 117.697 167.82 114.643C162.195 112.929 156.436 111.08 150.677 109.902C148.427 109.446 145.99 109.232 143.659 108.75C144.677 107.143 144.409 104.812 142.052 104.437C133.882 103.178 126.998 105.241 121.453 111.616L121.4 111.67ZM129.275 112.634C130.695 111.589 132.088 110.92 133.534 110.518C133.668 110.759 133.855 110.973 134.07 111.161L134.525 111.964C134.954 114.188 137.123 114.563 138.704 113.705C143.659 115.554 149.606 115.768 154.508 117.107C163.32 119.545 171.731 122.063 179.687 126.67C190.187 132.777 205.75 141.188 208.375 154.287C209.634 160.555 206.982 166.581 200.205 167.144C193.482 167.707 186.49 165.001 180.249 162.885C172.106 160.126 163.4 157.635 155.766 153.644C148.427 149.813 141.864 144.67 135.061 139.983C129.543 136.179 119.793 129.938 122.23 121.848C123.355 118.125 126.195 114.857 129.275 112.607V112.634Z" fill="#114635"/>
</g>
</svg>
