<svg width="269" height="325" viewBox="0 0 269 325" fill="none" xmlns="http://www.w3.org/2000/svg">
<path d="M36.0247 75.4258C31.3447 81.5127 27.0247 87.8639 23.4047 94.6163C19.8347 101.271 16.8248 108.199 14.1048 115.226C11.3048 122.477 8.78473 129.817 6.92473 137.362C5.02473 145.083 3.68468 152.912 2.49468 160.76C0.0546799 176.839 -0.935227 192.986 1.71477 209.094C3.02477 217.03 4.44477 225.074 6.58477 232.835C8.66477 240.36 11.5147 247.661 14.6547 254.824C16.2047 258.347 17.7248 261.919 19.5748 265.305C21.3848 268.622 23.8147 271.118 26.2347 273.985C28.6847 276.892 30.9147 279.857 33.6147 282.567C36.2847 285.239 39.0547 287.813 41.7547 290.455C46.8847 295.495 52.3047 300.515 58.6447 304.087C61.7847 305.858 65.2247 307.111 68.4947 308.608C71.8447 310.145 75.1647 311.75 78.5047 313.325C85.0647 316.417 91.7248 319.402 98.7248 321.408C106.195 323.552 113.745 323.992 121.485 324.158C129.915 324.344 138.045 323.356 146.365 322.181C150.395 321.614 154.475 321.311 158.455 320.479C162.105 319.725 165.665 318.61 169.165 317.357C176.235 314.822 183.285 312.082 190.105 308.951C196.935 305.809 203.155 301.983 209.015 297.335C215.265 292.373 222.205 288.331 228.145 282.988C233.815 277.88 239.855 273.212 245.515 268.113C251.035 263.132 255.615 257.3 260.025 251.379C264.585 245.253 267.395 238.246 270.255 231.249C273.225 223.988 275.805 216.551 277.495 208.898C279.255 200.971 279.775 192.859 279.815 184.756C279.835 180.822 280.015 176.79 279.275 172.915C278.895 170.889 278.405 168.922 278.305 166.857C278.215 164.851 278.305 162.845 278.365 160.839C278.585 152.775 277.665 144.506 279.445 136.569C281.165 128.848 285.055 121.968 288.435 114.864C290.105 111.36 292.175 108.062 293.915 104.588C295.505 101.418 296.845 98.1294 298.035 94.7924C300.565 87.7171 302.645 80.4754 303.655 73.0282C304.655 65.6886 305.205 57.5368 302.825 50.393C301.735 47.1147 299.805 44.1789 297.715 41.4388C295.645 38.7378 293.525 36.0173 291.265 33.4729C286.665 28.2863 280.885 24.0587 274.735 20.7804C268.265 17.3357 261.045 14.9479 253.975 12.9515C250.145 11.8751 246.235 11.2683 242.285 10.7399C238.455 10.231 234.645 9.61447 230.785 9.29153C226.825 8.9588 222.975 8.56736 219.085 7.78447C215.115 6.9918 211.065 7.22667 207.035 7.23645C205.585 7.23645 205.585 9.4481 207.035 9.43832C211.195 9.42853 215.305 9.21324 219.385 10.1038C223.135 10.9258 226.965 11.1705 230.785 11.4836C234.635 11.8066 238.455 12.4133 242.275 12.9319C246.015 13.4408 249.725 14.0378 253.365 15.0653C267.115 18.9406 280.745 24.6165 290.155 35.5867C294.595 40.7635 299.665 46.3611 301.235 53.1038C302.935 60.4139 302.245 68.4581 300.945 75.7781C299.665 82.9806 297.495 90.0462 294.855 96.8768C292.195 103.766 288.205 110.029 285.075 116.703C281.925 123.417 278.475 129.748 277.015 137.088C275.525 144.584 276.275 152.334 276.115 159.928C276.035 163.735 275.865 167.444 276.615 171.202C277.405 175.116 277.525 178.904 277.545 182.887C277.575 190.999 277.215 199.151 275.555 207.127C274.035 214.427 271.685 221.532 268.935 228.47C266.175 235.448 263.445 242.719 259.045 248.894C254.905 254.716 250.375 260.51 245.115 265.412C239.715 270.462 233.735 274.866 228.255 279.837C225.385 282.44 222.505 284.926 219.305 287.147C216.175 289.33 213.025 291.483 209.985 293.773C206.985 296.023 204.135 298.431 200.985 300.486C197.945 302.472 194.745 304.234 191.475 305.829C184.915 309.039 178.055 311.661 171.215 314.235C167.725 315.547 164.195 316.78 160.575 317.709C156.815 318.668 153.025 319.089 149.195 319.578C141.085 320.616 133.115 321.986 124.905 321.976C117.225 321.976 109.445 321.81 101.965 319.97C94.9948 318.257 88.3647 315.458 81.8847 312.464C75.4747 309.489 69.0547 306.543 62.6147 303.627C56.0647 300.652 50.5447 295.818 45.4247 290.925C40.2547 285.983 34.7147 281.139 30.2447 275.561C29.1847 274.23 28.2147 272.85 27.0647 271.587C25.7547 270.139 24.3547 268.769 23.2647 267.145C21.1747 264.052 19.6747 260.608 18.1547 257.231C14.9847 250.185 12.0147 243.042 9.73467 235.663C7.42467 228.176 6.02479 220.436 4.60479 212.754C3.16479 204.974 2.27471 197.184 2.27471 189.267C2.26471 173.639 4.67469 157.824 8.00469 142.568C11.1847 128.016 16.3947 113.719 22.9847 100.302C29.6347 86.7776 38.7747 74.682 48.9347 63.4966C53.9647 57.9479 59.2847 52.6829 64.6147 47.4278C69.8647 42.251 75.0548 37.0155 80.5948 32.1322C86.2148 27.1609 92.2347 22.8354 98.6147 18.8623C105.065 14.85 111.775 11.0824 119.005 8.59672C122.335 7.45175 125.715 6.54165 128.975 5.20095C130.005 4.78015 130.985 4.30063 131.975 3.81133C132.475 3.56668 134.295 2.60765 134.345 3.26331C134.465 4.66272 136.715 4.68229 136.595 3.26331C136.395 1.01252 134.595 0.48407 132.595 1.14952C131.635 1.47246 130.745 1.98134 129.835 2.42171C128.225 3.21438 126.515 3.83091 124.815 4.41807C121.215 5.6609 117.565 6.66886 114.045 8.13677C110.425 9.64383 106.925 11.4249 103.525 13.3527C96.9047 17.1008 90.4247 21.2207 84.4947 25.9474C78.4847 30.7328 72.9547 36.076 67.4947 41.4485C56.4647 52.3209 45.4547 63.1736 36.0147 75.4356L36.0247 75.4258Z" fill="#D9E0C0" fill-opacity="0.2"/>
<path d="M125.365 29.0998C122.365 30.7341 119.295 32.1922 116.455 34.0907C110.935 37.7702 106.115 42.3208 100.885 46.3722C98.0249 48.5839 95.055 50.6781 92.185 52.8897C89.375 55.0622 86.515 57.0782 84.075 59.6617C82.985 60.8164 81.935 62.0005 80.835 63.1455C79.625 64.3883 78.275 65.4942 77.095 66.7664C74.865 69.1737 73.145 71.9628 71.095 74.4973C66.745 79.8601 61.7249 84.5574 57.9949 90.3997C56.1649 93.267 53.775 95.7038 51.795 98.4536C49.655 101.419 47.865 104.658 45.965 107.77C42.245 113.857 38.3849 119.807 35.2549 126.226C32.2349 132.431 29.705 138.87 27.695 145.446C25.625 152.209 23.575 159.01 21.675 165.811C19.705 172.877 18.6049 179.972 18.5149 187.301C18.4649 191.098 18.5849 194.895 18.6249 198.692C18.6649 202.343 18.725 205.885 19.335 209.496C19.945 213.097 20.8549 216.64 21.5349 220.222C22.1349 223.363 22.5649 226.534 23.1549 229.675C24.3149 235.83 25.8849 241.849 28.9149 247.407C35.0649 258.7 44.7949 268.115 54.9849 275.953C64.7849 283.489 75.6749 290.486 87.7749 293.842C94.0349 295.584 100.655 296.308 107.155 295.79C114.375 295.222 121.295 293.04 128.225 291.122C135.265 289.174 142.405 287.716 149.365 285.475C156.235 283.263 162.965 280.621 169.525 277.646C176.095 274.662 182.505 271.364 188.425 267.263C191.305 265.267 194.275 263.75 197.445 262.253C200.595 260.765 203.475 258.877 206.375 256.968C212.205 253.132 217.925 249.061 223.075 244.374C225.515 242.152 227.815 239.784 230.155 237.475C232.485 235.175 234.785 232.846 236.805 230.272C238.845 227.669 240.535 224.782 242.405 222.052C244.395 219.165 246.395 216.278 248.145 213.254C251.615 207.245 253.715 200.64 254.825 193.848C255.945 187.027 256.185 180.118 256.275 173.229C256.375 165.909 255.275 158.834 254.345 151.592C253.875 147.961 253.515 144.301 253.615 140.641C253.695 137.549 255.475 135.386 256.655 132.646C257.325 131.09 257.605 129.466 257.945 127.822C258.345 125.884 259.025 124.113 259.855 122.312C261.365 119.044 263.125 115.902 264.695 112.663C267.685 106.517 270.615 100.098 272.225 93.453C273.795 87.0039 273.375 80.5256 271.915 74.0863C270.385 67.3633 266.835 61.5602 263.105 55.806C261.565 53.428 259.825 51.1674 257.815 49.1417C255.715 47.0181 253.325 45.3251 250.935 43.544C248.465 41.7042 246.705 39.0914 243.945 37.6039C242.535 36.8504 241.005 36.361 239.515 35.7837C237.875 35.1476 236.365 34.2766 234.845 33.4154C228.935 30.0882 223.105 26.5261 216.685 24.1774C213.415 22.9835 210.015 22.3963 206.665 21.4667C203.245 20.5272 199.875 19.4018 196.355 18.8636C192.725 18.3058 189.115 17.6501 185.495 17.014C181.985 16.3975 178.465 16.2018 174.925 15.8299C167.715 15.0861 160.415 15.6244 153.445 17.5914C146.965 19.4605 140.495 21.0948 134.475 24.1578C131.395 25.7236 128.415 27.4753 125.385 29.1291L125.365 29.0998ZM154.025 19.6856C161.215 17.6501 168.515 17.3565 175.935 18.11C179.565 18.4819 183.115 18.7559 186.705 19.4312C190.205 20.0868 193.765 20.5174 197.255 21.2122C200.565 21.8679 203.765 22.9541 207.015 23.8153C210.375 24.6961 213.725 25.3419 216.975 26.6043C223.225 29.0313 228.915 32.6326 234.745 35.8717C236.025 36.5861 237.305 37.2418 238.675 37.78C240.335 38.4259 242.085 38.9446 243.585 39.9232C246.115 41.577 247.935 44.1018 250.415 45.8438C255.375 49.3178 259.115 53.5552 262.255 58.6439C264.025 61.5112 265.875 64.3394 267.315 67.3731C268.785 70.4949 269.665 73.8515 270.255 77.2277C270.815 80.3886 271.195 83.6473 270.995 86.8571C270.785 90.2823 269.935 93.6487 268.865 96.8977C266.735 103.356 263.765 109.59 260.645 115.628C259.055 118.711 257.245 121.872 256.235 125.209C255.765 126.755 255.585 128.36 255.185 129.916C254.785 131.491 254.055 132.861 253.265 134.28C251.755 136.972 251.305 139.379 251.345 142.442C251.395 146.014 251.805 149.566 252.285 153.099C252.755 156.534 253.305 159.959 253.655 163.414C254.025 167.005 254.055 170.577 253.995 174.178C253.785 187.761 252.655 201.452 245.425 213.391C243.655 216.317 241.675 219.116 239.745 221.944C237.905 224.625 236.265 227.473 234.155 229.969C232.105 232.405 229.815 234.646 227.535 236.878C225.165 239.197 222.845 241.585 220.355 243.777C215.195 248.317 209.525 252.242 203.765 255.99C200.915 257.839 198.065 259.493 194.975 260.932C191.915 262.36 189.215 264.024 186.435 265.903C180.615 269.847 174.325 273.027 167.895 275.924C161.345 278.879 154.625 281.463 147.755 283.626C140.955 285.769 133.975 287.178 127.105 289.096C120.385 290.965 113.635 293.108 106.625 293.588C93.6949 294.459 81.4649 290.27 70.5149 283.802C59.5949 277.353 49.3549 269.387 40.8749 260.041C36.6449 255.383 32.8349 250.294 30.0249 244.687C27.2249 239.099 25.9749 232.895 24.9049 226.798C24.3549 223.617 23.895 220.437 23.225 217.276C22.475 213.733 21.5849 210.201 21.1549 206.599C20.7249 203.067 20.875 199.495 20.815 195.942C20.755 192.145 20.675 188.348 20.815 184.551C21.085 177.496 22.5249 170.704 24.5249 163.932C26.4749 157.317 28.325 150.643 30.445 144.076C32.545 137.549 35.165 131.178 38.295 125.062C41.485 118.828 45.3549 113.006 48.9949 107.026C50.8149 104.041 52.545 100.949 54.725 98.1992C56.775 95.6157 58.8049 93.1398 60.6149 90.3899C64.2949 84.8021 69.345 80.3298 73.435 75.0552C75.475 72.4325 77.2449 69.5945 79.6649 67.285C81.9649 65.0832 84.095 62.7736 86.315 60.5033C88.745 58.0274 91.6549 56.0506 94.4049 53.927C97.1849 51.7839 100.075 49.768 102.845 47.6052C107.965 43.6027 112.715 39.1305 118.185 35.5684C120.985 33.7482 124.005 32.339 126.935 30.7341C129.815 29.1487 132.655 27.4949 135.595 25.9976C141.435 23.0324 147.745 21.4667 154.025 19.6562V19.6856Z" fill="#D9E0C0" fill-opacity="0.2"/>
<path d="M98.0649 75.5048C94.2749 79.4877 90.6448 83.5196 87.3648 87.9233C84.0548 92.3759 81.0249 97.0146 77.7149 101.467C74.3949 105.939 70.8849 110.069 68.5649 115.177C67.3849 117.771 66.3648 120.423 65.1148 122.987C63.9048 125.463 62.5948 127.87 61.5348 130.405C59.3948 135.513 57.8749 140.846 56.1949 146.111C54.4249 151.699 52.6548 157.218 51.5148 162.982C49.4248 173.502 48.7248 184.277 50.1448 194.924C50.8348 200.14 51.9849 205.307 53.8149 210.259C55.5949 215.054 57.8148 219.751 60.0048 224.38C64.4448 233.794 69.8449 242.631 77.6049 249.795C81.2249 253.141 85.2649 255.774 90.1749 256.89C95.6449 258.142 101.305 257.809 106.865 257.682C112.725 257.545 118.575 257.946 124.435 257.888C130.205 257.829 135.825 256.968 141.445 255.705C144.365 255.05 147.275 254.316 150.195 253.631C153.065 252.956 155.995 252.466 158.845 251.742C164.145 250.401 169.055 247.935 173.855 245.41C178.505 242.964 183.405 241.114 188.095 238.766C192.975 236.319 196.805 232.552 201.385 229.665C203.645 228.236 206.175 227.218 208.355 225.682C210.205 224.38 211.785 222.795 213.235 221.082C216.505 217.217 219.755 213.263 222.595 209.075C225.645 204.563 228.285 199.749 230.235 194.68C231.225 192.096 232.005 189.434 232.755 186.772C233.485 184.199 234.275 181.625 234.785 179.002C235.835 173.61 235.585 168.198 234.655 162.806C233.665 157.091 231.975 151.464 231.495 145.671C230.595 135.014 237.275 125.521 242.035 116.508C243.235 114.238 244.335 111.88 245.065 109.423C245.785 106.996 245.975 104.511 245.995 101.996C246.035 96.8482 245.355 91.6518 243.895 86.7C242.425 81.6993 240.105 77.0608 236.905 72.9017C235.265 70.7683 233.375 68.7915 231.875 66.5701C230.405 64.3976 229.375 61.9609 227.585 59.9939C225.945 58.1932 223.835 56.8232 222.015 55.1987C220.015 53.4176 217.825 51.8225 215.575 50.3546C210.935 47.3209 205.965 44.7374 201.175 41.9386C196.315 39.0908 191.355 37.1238 185.795 36.018C180.335 34.9317 174.725 34.6479 169.185 35.2351C163.635 35.8223 158.215 37.2021 153.065 39.3159C153.015 39.3355 152.975 39.3648 152.935 39.3844C152.885 39.3942 152.845 39.404 152.795 39.4235C150.155 40.5294 147.675 41.8798 145.125 43.152C142.645 44.3949 140.115 45.5398 137.595 46.6848C132.625 48.9258 127.615 51.1375 122.955 53.9559C113.495 59.6709 105.585 67.6074 98.0549 75.5146L98.0649 75.5048ZM139.745 48.1234C144.495 45.9704 149.035 43.3869 153.835 41.371C164.205 37.1532 175.585 35.9984 186.565 38.4254C189.195 39.0027 191.825 39.7269 194.295 40.8034C196.855 41.919 199.255 43.3673 201.645 44.7863C206.205 47.497 210.965 49.8946 215.365 52.8696C217.605 54.3864 219.595 56.1186 221.655 57.8507C223.595 59.485 225.675 60.8648 227.095 62.9884C228.495 65.0728 229.555 67.3138 231.145 69.2808C232.805 71.3555 234.555 73.3714 236.095 75.5341C242.055 83.8817 244.275 94.5582 243.655 104.618C243.345 109.727 240.745 114.346 238.245 118.72C235.765 123.055 233.395 127.4 231.645 132.078C229.835 136.893 228.775 141.893 229.385 147.031C230.035 152.472 231.495 157.776 232.445 163.168C233.395 168.59 233.595 174.06 232.395 179.462C231.245 184.629 229.745 189.943 227.755 194.865C225.785 199.729 223.155 204.348 220.165 208.674C217.335 212.754 214.155 216.767 210.815 220.476C209.285 222.178 207.565 223.685 205.555 224.83C203.275 226.112 200.965 227.238 198.795 228.715C196.595 230.213 194.575 231.896 192.475 233.52C190.445 235.076 188.165 236.309 185.855 237.415C181.285 239.588 176.635 241.476 172.145 243.815C167.305 246.35 162.345 248.757 156.955 249.922C151.425 251.116 145.925 252.447 140.395 253.68C134.645 254.962 128.935 255.696 123.035 255.686C117.425 255.686 111.825 255.343 106.215 255.49C100.795 255.627 95.2249 255.95 89.9349 254.551C84.9749 253.249 81.1948 250.186 77.6248 246.722C73.9348 243.13 70.7949 239.079 68.0949 234.734C65.4349 230.457 63.1849 225.946 61.0949 221.376C58.9849 216.776 56.7649 212.148 55.2049 207.333C52.0249 197.527 51.1748 187.027 51.8848 176.8C52.2748 171.281 53.1548 165.791 54.3848 160.389C55.6148 155.007 57.4249 149.82 59.0649 144.555C60.7049 139.3 62.2848 134.006 64.6148 128.986C65.7648 126.51 67.1149 124.132 68.2149 121.636C69.3049 119.17 70.2848 116.655 71.5048 114.248C73.9048 109.472 77.6049 105.499 80.7149 101.174C83.8249 96.8384 86.7848 92.4053 90.0048 88.1484C93.3248 83.7544 97.0848 79.7715 100.895 75.7886C104.605 71.9231 108.395 68.1261 112.445 64.5835C116.475 61.0605 120.745 57.7626 125.425 55.0812C130.035 52.439 134.925 50.3154 139.775 48.1234H139.745Z" fill="#D9E0C0" fill-opacity="0.2"/>
<path d="M101.745 98.9223C96.6152 105.939 93.5353 114.14 90.3353 122.115C89.5253 124.151 88.9552 126.245 88.3652 128.349C87.7152 130.678 86.8753 132.821 85.8253 134.994C83.8753 139.006 82.8153 143.263 81.9253 147.608C81.4453 149.966 81.2453 152.354 80.8553 154.722C80.5153 156.758 79.9753 158.754 79.8053 160.819C79.6053 163.266 79.7652 165.771 79.7552 168.217C79.7552 170.625 79.7352 173.032 79.7352 175.44C79.7352 184.638 80.0253 193.945 83.6553 202.566C86.8553 210.18 91.1552 217.588 97.1352 223.46C99.8652 226.141 102.975 228.5 106.405 230.261C109.725 231.964 113.795 233.608 117.595 233.696C119.745 233.745 121.845 233.148 123.915 232.688C126.145 232.179 128.365 232.15 130.635 231.964C135.405 231.572 140.115 230.682 144.815 229.782C149.475 228.891 154.125 227.903 158.705 226.679C163.055 225.515 167.535 224.301 171.445 222.041C175.055 219.947 178.235 217.236 181.805 215.083C185.465 212.861 189.455 211.188 192.735 208.409C195.955 205.688 198.965 202.576 201.765 199.445C204.565 196.323 207.145 192.976 209.205 189.336C210.265 187.467 211.055 185.519 211.955 183.582C212.885 181.595 214.115 179.765 215.155 177.827C217.025 174.353 217.655 170.723 217.645 166.818C217.635 163.041 217.055 159.371 215.755 155.818C214.355 151.992 212.375 148.224 211.955 144.124C211.495 139.671 213.225 135.317 215.085 131.334C216.085 129.191 217.015 127.087 217.695 124.826C218.335 122.712 218.805 120.501 219.875 118.543C220.955 116.567 221.825 114.746 222.145 112.496C222.475 110.206 222.705 107.965 223.295 105.714C223.825 103.698 224.445 101.702 224.775 99.6464C225.105 97.5522 225.055 95.4482 225.155 93.3442C225.255 91.3479 225.355 89.2634 224.795 87.316C224.205 85.2316 222.835 83.4603 222.045 81.4541C220.545 77.6473 219.005 74.0657 216.445 70.8167C207.445 59.367 192.235 52.3895 177.595 51.9687C173.855 51.8611 170.115 52.2232 166.475 53.0452C162.005 53.6715 158.005 55.6287 154.015 57.5957C149.845 59.6508 145.735 61.8233 141.725 64.1719C137.775 66.4815 133.925 68.9671 130.205 71.6387C126.485 74.3103 122.625 76.8058 118.995 79.5948C115.455 82.3153 112.475 85.486 109.685 88.9307C107.015 92.2384 104.235 95.5167 101.735 98.9418L101.745 98.9223ZM121.255 80.6223C124.795 77.9801 128.485 75.5336 132.085 72.9794C139.365 67.8319 147.135 63.4184 155.155 59.4746C158.985 57.5859 162.785 55.7461 167.075 55.1492C181.515 51.8904 197.505 56.6758 208.645 65.9921C211.185 68.1157 213.535 70.5133 215.465 73.1849C216.575 74.7213 217.515 76.3556 218.295 78.0779C219.175 80.0254 219.775 82.0902 220.755 83.9887C221.775 85.9655 222.815 87.7074 222.945 89.968C223.065 92.0231 222.825 94.0977 222.805 96.1528C222.765 100.371 221.075 104.197 220.415 108.307C220.055 110.538 220.085 112.887 219.195 115.001C218.425 116.85 217.285 118.455 216.665 120.383C215.985 122.497 215.465 124.66 214.685 126.744C213.905 128.838 212.815 130.805 211.945 132.87C210.355 136.657 209.225 140.709 209.785 144.838C210.305 148.694 212.015 152.217 213.375 155.828C214.725 159.4 215.385 162.992 215.395 166.808C215.405 170.762 214.675 174.167 212.695 177.632C211.655 179.462 210.525 181.233 209.695 183.171C208.895 185.02 208.075 186.821 207.065 188.572C204.995 192.154 202.425 195.432 199.625 198.495C196.885 201.49 193.985 204.553 190.815 207.117C187.585 209.74 183.625 211.305 180.105 213.507C176.645 215.68 173.515 218.322 169.955 220.328C166.125 222.481 161.685 223.597 157.445 224.722C153.075 225.877 148.655 226.807 144.225 227.648C139.575 228.539 134.905 229.429 130.175 229.782C127.995 229.948 125.875 229.987 123.735 230.457C121.715 230.897 119.685 231.533 117.595 231.484C115.645 231.445 113.595 230.77 111.765 230.144C110.015 229.547 108.335 228.803 106.715 227.912C99.7353 224.076 94.4852 217.891 90.5052 211.208C88.3752 207.636 86.4553 203.868 85.0253 199.973C83.4553 195.697 82.6653 191.195 82.3053 186.674C81.9553 182.241 81.9752 177.788 81.9852 173.345C81.9852 170.899 82.0052 168.462 82.0052 166.016C82.0052 163.765 81.8752 161.494 82.2452 159.263C82.5752 157.286 83.0653 155.339 83.2853 153.343C83.5553 150.896 84.0053 148.489 84.5553 146.081C85.0553 143.889 85.5453 141.668 86.2953 139.544C86.9853 137.607 87.9753 135.826 88.8153 133.947C90.5653 130.013 91.2853 125.726 92.8953 121.724C94.4453 117.849 95.9753 113.963 97.7753 110.186C99.5453 106.458 101.575 102.837 104.065 99.5192C106.635 96.1039 109.375 92.757 112.095 89.4591C114.825 86.1514 117.795 83.196 121.255 80.6125V80.6223Z" fill="#D9E0C0" fill-opacity="0.2"/>
<path d="M108.575 179.922C109.455 183.152 110.815 186.273 112.345 189.248C115.105 194.592 118.195 199.631 123.105 203.321C127.445 206.589 132.655 208.84 138.055 209.74C143.765 210.69 149.055 209.907 154.385 207.793C166.285 203.066 176.555 195.149 184.955 185.716C189.285 180.842 193.565 175.607 195.695 169.412C196.755 166.339 197.205 163.051 196.775 159.822C196.325 156.524 194.975 153.471 193.905 150.349C192.825 147.168 192.255 143.939 192.755 140.592C193.245 137.275 194.505 134.133 195.455 130.923C196.485 127.41 197.185 123.848 198.315 120.354C199.375 117.086 200.385 113.827 200.995 110.451C202.055 104.491 202.215 98.326 200.855 92.4054C200.195 89.5577 199.165 86.7785 197.745 84.2145C196.245 81.5136 194.225 79.2921 192.205 76.9532C190.055 74.4676 187.915 72.0113 185.205 70.0834C185.155 70.0541 185.115 70.0247 185.065 70.0051C185.135 70.0051 184.865 69.8486 184.945 69.9464H184.935C184.815 69.829 184.675 69.7213 184.555 69.6039C184.135 69.2223 183.725 68.821 183.275 68.4589C181.975 67.3923 180.535 66.5702 178.945 65.9733C176.535 65.0632 173.895 64.75 171.325 64.7402C169.685 64.7402 168.155 64.8577 166.615 65.4546C164.965 66.1005 163.475 67.04 161.955 67.9207C160.575 68.7134 159.185 69.4571 157.875 70.3574C156.305 71.4339 154.795 72.618 153.185 73.6456C150.365 75.4462 147.085 76.3954 144.395 78.4114C141.695 80.4371 139.315 83.0402 136.995 85.4671C134.725 87.8256 132.555 90.2721 130.515 92.8263C126.395 97.9737 122.765 103.513 120.075 109.511C118.725 112.526 117.755 115.647 116.655 118.75C115.455 122.126 114.035 125.424 112.735 128.761C110.065 135.64 108.365 142.823 107.535 150.133C107.115 153.793 107.135 157.434 107.035 161.104C106.945 164.607 106.885 168.071 107.235 171.565C107.515 174.364 107.845 177.202 108.585 179.922H108.575ZM109.305 159.45C109.385 152.267 110.215 145.289 111.965 138.302C113.645 131.608 116.675 125.394 118.955 118.906C120.045 115.794 121.025 112.692 122.425 109.697C123.765 106.83 125.315 104.061 127.025 101.399C130.425 96.1144 134.465 91.2605 138.845 86.7295C141.045 84.4494 143.285 81.9344 145.865 80.0457C148.445 78.1569 151.605 77.2566 154.295 75.5441C155.785 74.5948 157.175 73.5183 158.625 72.5104C160.055 71.5122 161.555 70.6804 163.065 69.8192C164.385 69.0657 165.675 68.2241 167.085 67.6271C168.705 66.9421 170.365 66.903 172.105 66.9519C175.865 67.0791 179.515 68.0479 182.315 70.5825C182.845 71.062 183.345 71.6101 183.995 71.933C184.015 71.9526 184.025 71.9624 184.045 71.9819C186.805 73.9489 188.925 76.6107 191.125 79.1258C193.105 81.3863 194.945 83.6078 196.295 86.3087C198.895 91.4856 199.745 97.3572 199.535 103.072C199.425 105.969 199.055 108.856 198.445 111.694C197.705 115.168 196.495 118.505 195.445 121.891C194.455 125.081 193.895 128.369 192.895 131.55C191.945 134.574 190.875 137.558 190.465 140.709C190.065 143.802 190.445 146.865 191.365 149.84C192.245 152.688 193.475 155.418 194.195 158.324C195.825 164.979 192.985 171.594 189.155 176.996C182.145 186.87 172.735 195.648 162.085 201.667C157.225 204.417 151.665 207.235 146.015 207.852C140.815 208.41 135.445 207.362 130.705 205.249C125.875 203.096 121.415 199.788 118.505 195.404C115.035 190.178 111.785 184.267 110.435 178.131C109.075 171.937 109.225 165.752 109.295 159.46L109.305 159.45Z" fill="#D9E0C0" fill-opacity="0.2"/>
<path d="M124.685 162.19C125.245 164.294 126.065 166.329 126.715 168.414C127.745 171.731 129.215 174.794 131.875 177.162C134.275 179.296 137.265 180.676 140.395 181.468C143.685 182.31 147.225 182.652 150.615 182.545C154.575 182.417 157.945 180.881 161.335 179.012C163.325 177.916 165.095 176.575 166.945 175.274C168.525 174.158 170.305 173.385 171.885 172.289C174.835 170.244 176.095 166.358 176.785 163.041C177.565 159.244 177.645 155.3 177.205 151.454C176.995 149.644 176.675 147.873 176.255 146.101C175.695 143.743 175.675 141.326 176.055 138.938C176.775 134.407 178.645 130.199 180.365 125.971C182.065 121.783 183.145 117.369 183.545 112.887C183.755 110.549 183.775 108.18 183.555 105.841C183.355 103.698 182.565 101.868 181.785 99.8817C180.975 97.8267 180.915 95.5954 180.055 93.5697C179.295 91.7691 178.195 90.0761 176.795 88.6963C175.555 87.473 173.995 86.4553 172.225 86.2106C172.195 86.2106 172.175 86.2106 172.145 86.2106C172.075 86.2008 172.015 86.1715 171.925 86.1715C167.925 86.1617 164.095 86.2595 160.455 88.0797C156.755 89.9293 153.725 92.7379 151.005 95.7618C149.595 97.3276 148.235 98.9325 146.745 100.42C145.245 101.907 143.685 103.336 142.195 104.833C139.035 108.034 136.685 111.586 134.885 115.667C131.095 124.259 128.405 133.115 125.855 142.118C125.205 144.408 124.495 146.659 124.195 149.018C123.915 151.249 123.925 153.5 123.955 155.75C123.975 157.952 124.115 160.056 124.685 162.199V162.19ZM126.185 153.979C126.185 151.836 126.255 149.693 126.685 147.589C127.125 145.416 127.855 143.283 128.455 141.14C129.055 138.997 129.655 136.844 130.275 134.701C131.525 130.434 132.945 126.245 134.615 122.116C136.195 118.211 137.665 114.209 140.075 110.705C142.355 107.407 145.475 104.794 148.305 101.966C153.545 96.7404 158.115 89.6064 166.195 88.5495C168.045 88.3048 169.925 88.3538 171.785 88.3635C175.505 89.0094 177.915 93.2664 178.575 96.5643C178.985 98.5998 179.585 100.41 180.355 102.348C181.155 104.354 181.375 106.341 181.425 108.474C181.515 112.799 180.865 117.105 179.625 121.255C178.405 125.326 176.455 129.142 175.145 133.194C173.875 137.128 173.105 141.296 173.795 145.416C174.085 147.119 174.565 148.773 174.815 150.485C175.075 152.306 175.205 154.145 175.205 155.985C175.205 159.596 174.745 163.295 173.335 166.662C172.665 168.247 171.835 169.715 170.335 170.674C168.785 171.663 167.135 172.445 165.625 173.512C162.475 175.753 159.265 178.023 155.585 179.384C152.285 180.607 148.735 180.49 145.275 180.127C139.175 179.482 133.165 177.094 130.245 171.496C129.375 169.823 128.925 167.983 128.325 166.212C127.675 164.303 126.965 162.395 126.545 160.418C126.095 158.314 126.175 156.142 126.175 153.999L126.185 153.979Z" fill="#D9E0C0" fill-opacity="0.2"/>
<path d="M159.305 163.384C161.105 161.701 162.795 159.391 163.565 157.062C164.415 154.488 164.005 151.69 163.945 149.037C163.785 142.814 164.815 136.697 166.855 130.806C168.045 127.361 168.445 123.731 169.355 120.208C170.145 117.174 171.095 114.072 170.645 110.911C169.895 105.705 165.795 101.33 160.275 101.174C157.965 101.262 156.725 103.072 155.615 104.824C154.045 107.31 152.115 109.6 150.415 111.997C146.815 117.086 143.565 122.449 141.055 128.134C138.605 133.693 136.695 139.682 135.915 145.7C135.565 148.421 135.495 151.21 135.355 153.95C135.235 156.377 135.305 158.765 136.425 160.986C140.625 169.295 153.045 169.256 159.305 163.374V163.384ZM137.895 148.9C138.085 143.303 139.755 137.598 141.725 132.372C143.875 126.667 146.885 121.304 150.245 116.195C152.035 113.465 153.985 110.833 155.935 108.21C156.645 107.261 157.295 106.312 157.935 105.323C158.475 104.491 159.145 103.415 160.265 103.366C164.785 103.493 168.065 107.359 168.475 111.616C168.735 114.268 167.905 116.89 167.235 119.425C166.525 122.126 166.145 124.895 165.465 127.596C164.775 130.356 163.675 132.988 163.035 135.758C162.425 138.4 162.035 141.101 161.835 143.812C161.645 146.395 161.695 148.959 161.795 151.553C161.895 154.107 161.705 156.269 160.345 158.501C157.995 162.347 154.245 164.862 149.645 165.282C145.895 165.635 141.875 164.588 139.465 161.593C136.545 157.962 137.755 153.138 137.895 148.881V148.9Z" fill="#D9E0C0" fill-opacity="0.2"/>
</svg>
