<svg width="20" height="23" viewBox="0 0 20 23" fill="none" xmlns="http://www.w3.org/2000/svg">
<path fill-rule="evenodd" clip-rule="evenodd" d="M10.876 0.639729C10.6099 0.486134 10.3082 0.405273 10.001 0.405273C9.69379 0.405273 9.39201 0.486134 9.12598 0.639729L0.875977 5.40173C0.610023 5.55528 0.389158 5.77611 0.235568 6.04204C0.0819785 6.30797 0.00107211 6.60963 0.000976562 6.91673V16.4417C0.000976562 17.0667 0.334977 17.6447 0.875977 17.9567L9.12598 22.7197C9.39201 22.8733 9.69379 22.9542 10.001 22.9542C10.3082 22.9542 10.6099 22.8733 10.876 22.7197L19.126 17.9577C19.3921 17.8041 19.613 17.5831 19.7666 17.317C19.9202 17.0509 20.0011 16.749 20.001 16.4417V6.91673C20.0009 6.60963 19.92 6.30797 19.7664 6.04204C19.6128 5.77611 19.3919 5.55528 19.126 5.40173L10.876 0.638729V0.639729ZM9.87598 1.93773C9.91398 1.91579 9.95709 1.90424 10.001 1.90424C10.0449 1.90424 10.088 1.91579 10.126 1.93773L17.751 6.33973L10.001 10.8137L2.25098 6.33973L9.87598 1.93773ZM1.50098 7.63973V16.4427C1.50098 16.5327 1.54898 16.6147 1.62598 16.6587L9.25098 21.0607V12.1137L1.50098 7.63973ZM10.751 21.0607L18.376 16.6587C18.4139 16.6368 18.4454 16.6054 18.4674 16.5674C18.4893 16.5295 18.5009 16.4865 18.501 16.4427V7.63873L10.751 12.1127V21.0597V21.0607Z" fill="#114635"/>
</svg>
